<svg width="169" height="34" viewBox="0 0 169 34" fill="none" xmlns="http://www.w3.org/2000/svg">
<path d="M7.80473 15.8919C6.63176 15.8919 5.56406 15.6757 4.60163 15.2432C3.65424 14.8108 2.83467 14.227 2.14292 13.4919C1.46621 12.7423 0.939876 11.9063 0.563925 10.9838C0.187975 10.0468 0 9.08829 0 8.10811C0 7.08468 0.195494 6.11171 0.586483 5.18919C0.977471 4.25225 1.52636 3.42342 2.23314 2.7027C2.93993 1.96757 3.76702 1.39099 4.71442 0.972972C5.67685 0.54054 6.72951 0.324324 7.8724 0.324324C9.03033 0.324324 10.083 0.547748 11.0304 0.994595C11.9928 1.44144 12.8124 2.03964 13.4891 2.78919C14.1808 3.53874 14.7072 4.38198 15.0681 5.31892C15.444 6.24144 15.632 7.18559 15.632 8.15135C15.632 9.16036 15.4365 10.1333 15.0455 11.0703C14.6545 11.9928 14.1057 12.8216 13.3989 13.5568C12.7071 14.2775 11.88 14.8468 10.9176 15.2649C9.9702 15.6829 8.93258 15.8919 7.80473 15.8919ZM3.15798 8.10811C3.15798 9.0018 3.33844 9.83784 3.69935 10.6162C4.0753 11.3946 4.60915 12.0288 5.3009 12.5189C6.00769 13.009 6.84981 13.2541 7.82729 13.2541C8.83483 13.2541 9.68448 13.0018 10.3762 12.4973C11.068 11.9928 11.5943 11.3441 11.9552 10.5514C12.3161 9.75856 12.4966 8.94414 12.4966 8.10811C12.4966 7.21441 12.3086 6.37838 11.9327 5.6C11.5567 4.82162 11.0153 4.19459 10.3086 3.71892C9.61681 3.22883 8.78972 2.98378 7.82729 2.98378C6.81974 2.98378 5.97009 3.23604 5.27834 3.74054C4.58659 4.24504 4.06026 4.89369 3.69935 5.68649C3.33844 6.46486 3.15798 7.27207 3.15798 8.10811Z" fill="#00548E"/>
<path d="M28.6018 15.7838H25.5791V9.42703C25.5791 8.51892 25.4137 7.85586 25.0829 7.43784C24.752 7.01982 24.2934 6.81081 23.7069 6.81081C23.3009 6.81081 22.8873 6.91171 22.4663 7.11351C22.0602 7.31531 21.6918 7.5964 21.361 7.95676C21.0301 8.3027 20.7895 8.70631 20.6391 9.16757V15.7838H17.6165V4.45405H20.3459V6.55135C20.782 5.84505 21.4136 5.29009 22.2407 4.88649C23.0678 4.46847 24.0001 4.25946 25.0378 4.25946C25.7746 4.25946 26.3761 4.38919 26.8423 4.64865C27.3085 4.89369 27.6694 5.23243 27.9251 5.66486C28.1807 6.08288 28.3536 6.55856 28.4439 7.09189C28.5491 7.62523 28.6018 8.16576 28.6018 8.71351V15.7838Z" fill="#00548E"/>
<path d="M31.2075 0H34.2301V12.1514C34.2301 12.6847 34.3203 13.0378 34.5008 13.2108C34.6812 13.3838 34.9294 13.4703 35.2452 13.4703C35.4858 13.4703 35.7339 13.4414 35.9895 13.3838C36.2452 13.3261 36.4708 13.2541 36.6663 13.1676L37.0723 15.373C36.6663 15.5604 36.1926 15.7045 35.6512 15.8054C35.1098 15.9063 34.6211 15.9568 34.185 15.9568C33.2376 15.9568 32.5007 15.7189 31.9744 15.2432C31.4631 14.7532 31.2075 14.0613 31.2075 13.1676V0Z" fill="#00548E"/>
<path d="M38.3892 2.87568V0H41.4119V2.87568H38.3892ZM38.3892 15.7838V4.45405H41.4119V15.7838H38.3892Z" fill="#00548E"/>
<path d="M55.1239 15.7838H52.1012V9.42703C52.1012 8.51892 51.9358 7.85586 51.605 7.43784C51.2742 7.01982 50.8155 6.81081 50.229 6.81081C49.823 6.81081 49.4094 6.91171 48.9884 7.11351C48.5824 7.31531 48.2139 7.5964 47.8831 7.95676C47.5522 8.3027 47.3116 8.70631 47.1613 9.16757V15.7838H44.1386V4.45405H46.868V6.55135C47.3041 5.84505 47.9357 5.29009 48.7628 4.88649C49.5899 4.46847 50.5223 4.25946 51.5599 4.25946C52.2967 4.25946 52.8983 4.38919 53.3644 4.64865C53.8306 4.89369 54.1915 5.23243 54.4472 5.66486C54.7028 6.08288 54.8758 6.55856 54.966 7.09189C55.0713 7.62523 55.1239 8.16576 55.1239 8.71351V15.7838Z" fill="#00548E"/>
<path d="M63.2335 16C61.9553 16 60.85 15.7333 59.9176 15.2C59.0003 14.6667 58.286 13.9604 57.7747 13.0811C57.2634 12.1874 57.0078 11.2216 57.0078 10.1838C57.0078 9.11712 57.2559 8.13694 57.7521 7.24324C58.2634 6.33513 58.9853 5.61441 59.9176 5.08108C60.85 4.53333 61.9628 4.25946 63.256 4.25946C64.5493 4.25946 65.6546 4.53333 66.5719 5.08108C67.4893 5.61441 68.1885 6.32793 68.6697 7.22162C69.166 8.1009 69.4141 9.05225 69.4141 10.0757C69.4141 10.4505 69.3916 10.7748 69.3464 11.0486H60.2108C60.286 11.9279 60.6244 12.6198 61.2259 13.1243C61.8425 13.6288 62.5493 13.8811 63.3463 13.8811C63.9478 13.8811 64.5117 13.7441 65.0381 13.4703C65.5794 13.182 65.9479 12.8072 66.1433 12.3459L68.7374 13.0378C68.3013 13.9027 67.602 14.6162 66.6396 15.1784C65.6772 15.7261 64.5418 16 63.2335 16ZM60.1432 9.21081H66.3238C66.2336 8.36036 65.8952 7.67568 65.3087 7.15676C64.7373 6.62342 64.038 6.35676 63.2109 6.35676C62.3989 6.35676 61.6996 6.62342 61.1131 7.15676C60.5417 7.67568 60.2184 8.36036 60.1432 9.21081Z" fill="#00548E"/>
<path d="M76.9677 15.7838V0.432432H84.0506C84.7875 0.432432 85.4642 0.576576 86.0807 0.864864C86.7123 1.15315 87.2537 1.54234 87.7049 2.03243C88.171 2.52252 88.5244 3.07027 88.765 3.67568C89.0207 4.28108 89.1485 4.9009 89.1485 5.53513C89.1485 6.51532 88.8853 7.41622 88.359 8.23784C87.8477 9.05946 87.1484 9.65045 86.2612 10.0108L89.9154 15.7838H86.4868L83.1935 10.6378H80.0806V15.7838H76.9677ZM80.0806 8.02162H83.9829C84.5694 8.02162 85.0507 7.78378 85.4266 7.30811C85.8176 6.81802 86.0131 6.22703 86.0131 5.53513C86.0131 5.05946 85.9078 4.63423 85.6973 4.25946C85.4867 3.88468 85.2161 3.58919 84.8852 3.37297C84.5694 3.15676 84.2236 3.04865 83.8476 3.04865H80.0806V8.02162Z" fill="#00548E"/>
<path d="M96.7606 16C95.4824 16 94.3771 15.7333 93.4447 15.2C92.5274 14.6667 91.8131 13.9604 91.3018 13.0811C90.7905 12.1874 90.5349 11.2216 90.5349 10.1838C90.5349 9.11712 90.783 8.13694 91.2793 7.24324C91.7906 6.33513 92.5124 5.61441 93.4447 5.08108C94.3771 4.53333 95.4899 4.25946 96.7832 4.25946C98.0764 4.25946 99.1817 4.53333 100.099 5.08108C101.016 5.61441 101.716 6.32793 102.197 7.22162C102.693 8.1009 102.941 9.05225 102.941 10.0757C102.941 10.4505 102.919 10.7748 102.874 11.0486H93.738C93.8132 11.9279 94.1515 12.6198 94.753 13.1243C95.3696 13.6288 96.0764 13.8811 96.8734 13.8811C97.4749 13.8811 98.0388 13.7441 98.5652 13.4703C99.1065 13.182 99.475 12.8072 99.6705 12.3459L102.265 13.0378C101.828 13.9027 101.129 14.6162 100.167 15.1784C99.2043 15.7261 98.0689 16 96.7606 16ZM93.6703 9.21081H99.8509C99.7607 8.36036 99.4223 7.67568 98.8359 7.15676C98.2644 6.62342 97.5651 6.35676 96.7381 6.35676C95.926 6.35676 95.2267 6.62342 94.6403 7.15676C94.0688 7.67568 93.7455 8.36036 93.6703 9.21081Z" fill="#00548E"/>
<path d="M115.768 15.7838H112.745V9.42703C112.745 8.51892 112.58 7.85586 112.249 7.43784C111.918 7.01982 111.46 6.81081 110.873 6.81081C110.467 6.81081 110.053 6.91171 109.632 7.11351C109.226 7.31531 108.858 7.5964 108.527 7.95676C108.196 8.3027 107.956 8.70631 107.805 9.16757V15.7838H104.783V4.45405H107.512V6.55135C107.948 5.84505 108.58 5.29009 109.407 4.88649C110.234 4.46847 111.166 4.25946 112.204 4.25946C112.941 4.25946 113.542 4.38919 114.008 4.64865C114.475 4.89369 114.836 5.23243 115.091 5.66486C115.347 6.08288 115.52 6.55856 115.61 7.09189C115.715 7.62523 115.768 8.16576 115.768 8.71351V15.7838Z" fill="#00548E"/>
<path d="M123.878 16C122.599 16 121.494 15.7333 120.562 15.2C119.644 14.6667 118.93 13.9604 118.419 13.0811C117.907 12.1874 117.652 11.2216 117.652 10.1838C117.652 9.11712 117.9 8.13694 118.396 7.24324C118.907 6.33513 119.629 5.61441 120.562 5.08108C121.494 4.53333 122.607 4.25946 123.9 4.25946C125.193 4.25946 126.299 4.53333 127.216 5.08108C128.133 5.61441 128.833 6.32793 129.314 7.22162C129.81 8.1009 130.058 9.05225 130.058 10.0757C130.058 10.4505 130.036 10.7748 129.99 11.0486H120.855C120.93 11.9279 121.268 12.6198 121.87 13.1243C122.486 13.6288 123.193 13.8811 123.99 13.8811C124.592 13.8811 125.156 13.7441 125.682 13.4703C126.223 13.182 126.592 12.8072 126.787 12.3459L129.381 13.0378C128.945 13.9027 128.246 14.6162 127.284 15.1784C126.321 15.7261 125.186 16 123.878 16ZM120.787 9.21081H126.968C126.878 8.36036 126.539 7.67568 125.953 7.15676C125.381 6.62342 124.682 6.35676 123.855 6.35676C123.043 6.35676 122.344 6.62342 121.757 7.15676C121.186 7.67568 120.862 8.36036 120.787 9.21081Z" fill="#00548E"/>
<path d="M146.231 4.45405H149.096L144.156 15.7838H141.63L139.645 10.9189L137.705 15.7838H135.156L130.238 4.45405H133.08L136.599 13.0162L137.975 9.31892L135.923 4.47568H138.426L139.645 7.93513L140.885 4.47568H143.389L141.336 9.31892L142.735 13.0162L146.231 4.45405Z" fill="#00548E"/>
<path d="M149.393 12.4324C149.393 11.6973 149.604 11.0559 150.025 10.5081C150.461 9.94595 151.062 9.51351 151.829 9.21081C152.596 8.90811 153.476 8.75676 154.468 8.75676C154.965 8.75676 155.468 8.8 155.98 8.88649C156.491 8.95856 156.935 9.06667 157.311 9.21081V8.6054C157.311 7.88468 157.085 7.32973 156.634 6.94054C156.198 6.55135 155.544 6.35676 154.671 6.35676C154.025 6.35676 153.408 6.46486 152.822 6.68108C152.235 6.8973 151.619 7.21441 150.972 7.63243L150.002 5.72973C150.784 5.23964 151.581 4.87207 152.393 4.62703C153.22 4.38198 154.085 4.25946 154.987 4.25946C156.671 4.25946 157.98 4.66306 158.912 5.47027C159.859 6.27748 160.333 7.43063 160.333 8.92973V12.5405C160.333 12.8577 160.386 13.0811 160.491 13.2108C160.596 13.3261 160.784 13.3982 161.055 13.427V15.7838C160.784 15.8414 160.536 15.8775 160.311 15.8919C160.1 15.9207 159.92 15.9351 159.769 15.9351C159.168 15.9351 158.709 15.8054 158.393 15.5459C158.077 15.2865 157.889 14.9694 157.829 14.5946L157.762 14.0108C157.235 14.6595 156.589 15.1568 155.822 15.5027C155.07 15.8342 154.295 16 153.498 16C152.701 16 151.995 15.8486 151.378 15.5459C150.761 15.2288 150.273 14.8036 149.912 14.2703C149.566 13.7225 149.393 13.1099 149.393 12.4324ZM156.747 13.0162C157.123 12.6703 157.311 12.3387 157.311 12.0216V10.8757C156.529 10.573 155.739 10.4216 154.942 10.4216C154.145 10.4216 153.498 10.5874 153.002 10.9189C152.506 11.236 152.258 11.6613 152.258 12.1946C152.258 12.627 152.438 13.0162 152.799 13.3622C153.16 13.7081 153.679 13.8811 154.356 13.8811C154.807 13.8811 155.243 13.8018 155.664 13.6432C156.1 13.4847 156.461 13.2757 156.747 13.0162Z" fill="#00548E"/>
<path d="M163.135 0H166.158V12.1514C166.158 12.6847 166.248 13.0378 166.428 13.2108C166.609 13.3838 166.857 13.4703 167.173 13.4703C167.413 13.4703 167.662 13.4414 167.917 13.3838C168.173 13.3261 168.398 13.2541 168.594 13.1676L169 15.373C168.594 15.5604 168.12 15.7045 167.579 15.8054C167.038 15.9063 166.549 15.9568 166.113 15.9568C165.165 15.9568 164.428 15.7189 163.902 15.2432C163.391 14.7532 163.135 14.0613 163.135 13.1676V0Z" fill="#00548E"/>
<path d="M39.55 34C38.8481 34 38.2272 33.8333 37.6873 33.5C37.1563 33.1577 36.7424 32.7117 36.4454 32.1622C36.1485 31.6036 36 31 36 30.3514C36 29.6937 36.1485 29.0901 36.4454 28.5405C36.7514 27.982 37.1698 27.536 37.7008 27.2027C38.2407 26.8604 38.8571 26.6892 39.55 26.6892C40.2519 26.6892 40.8683 26.8604 41.3992 27.2027C41.9392 27.536 42.3576 27.982 42.6546 28.5405C42.9605 29.0901 43.1135 29.6937 43.1135 30.3514C43.1135 31 42.9605 31.6036 42.6546 32.1622C42.3576 32.7117 41.9437 33.1577 41.4127 33.5C40.8818 33.8333 40.2609 34 39.55 34ZM37.2148 30.3649C37.2148 30.8514 37.3183 31.2928 37.5253 31.6892C37.7413 32.0856 38.0247 32.4009 38.3757 32.6351C38.7266 32.8604 39.1181 32.973 39.55 32.973C39.9819 32.973 40.3734 32.8559 40.7243 32.6216C41.0843 32.3874 41.3677 32.0721 41.5747 31.6757C41.7907 31.2703 41.8987 30.8243 41.8987 30.3378C41.8987 29.8514 41.7907 29.4099 41.5747 29.0135C41.3677 28.6171 41.0843 28.3018 40.7243 28.0676C40.3734 27.8333 39.9819 27.7162 39.55 27.7162C39.1181 27.7162 38.7266 27.8378 38.3757 28.0811C38.0247 28.3153 37.7413 28.6306 37.5253 29.027C37.3183 29.4234 37.2148 29.8694 37.2148 30.3649Z" fill="#BDBDBD"/>
<path d="M50.6675 33.8649H49.4796V29.9189C49.4796 29.1712 49.3626 28.6261 49.1287 28.2838C48.9037 27.9324 48.5573 27.7568 48.0893 27.7568C47.7654 27.7568 47.4414 27.8378 47.1175 28C46.8025 28.1622 46.5191 28.3829 46.2671 28.6622C46.0241 28.9324 45.8486 29.2477 45.7407 29.6081V33.8649H44.5528V26.8108H45.6327V28.3243C45.9116 27.8288 46.3121 27.4324 46.834 27.1351C47.3649 26.8378 47.9409 26.6892 48.5618 26.6892C49.1107 26.6892 49.5336 26.8198 49.8306 27.0811C50.1365 27.3333 50.3525 27.6847 50.4785 28.1351C50.6045 28.5766 50.6675 29.0811 50.6675 29.6486V33.8649Z" fill="#BDBDBD"/>
<path d="M52.5416 24H53.7294V32.0405C53.7294 32.4279 53.7834 32.6667 53.8914 32.7568C53.9994 32.8468 54.1299 32.8919 54.2828 32.8919C54.4718 32.8919 54.6518 32.8739 54.8228 32.8378C54.9937 32.7928 55.1377 32.7477 55.2547 32.7027L55.4437 33.6757C55.2457 33.7568 55.0117 33.8243 54.7418 33.8784C54.4718 33.9324 54.2334 33.9595 54.0264 33.9595C53.5674 33.9595 53.203 33.8288 52.933 33.5676C52.6721 33.3063 52.5416 32.9414 52.5416 32.473V24Z" fill="#BDBDBD"/>
<path d="M56.3768 25.4865V24H57.5647V25.4865H56.3768ZM56.3768 33.8649V26.8108H57.5647V33.8649H56.3768Z" fill="#BDBDBD"/>
<path d="M65.6024 33.8649H64.4145V29.9189C64.4145 29.1712 64.2975 28.6261 64.0636 28.2838C63.8386 27.9324 63.4922 27.7568 63.0242 27.7568C62.7003 27.7568 62.3763 27.8378 62.0524 28C61.7374 28.1622 61.4539 28.3829 61.202 28.6622C60.959 28.9324 60.7835 29.2477 60.6756 29.6081V33.8649H59.4877V26.8108H60.5676V28.3243C60.8465 27.8288 61.247 27.4324 61.7689 27.1351C62.2998 26.8378 62.8757 26.6892 63.4967 26.6892C64.0456 26.6892 64.4685 26.8198 64.7655 27.0811C65.0714 27.3333 65.2874 27.6847 65.4134 28.1351C65.5394 28.5766 65.6024 29.0811 65.6024 29.6486V33.8649Z" fill="#BDBDBD"/>
<path d="M70.5676 34C69.8656 34 69.2447 33.8333 68.7048 33.5C68.1649 33.1667 67.7419 32.7207 67.436 32.1622C67.13 31.6036 66.9771 30.9955 66.9771 30.3378C66.9771 29.6712 67.13 29.0631 67.436 28.5135C67.7419 27.964 68.1649 27.5225 68.7048 27.1892C69.2537 26.8559 69.8791 26.6892 70.581 26.6892C71.2919 26.6892 71.9084 26.8604 72.4303 27.2027C72.9612 27.536 73.3707 27.9775 73.6586 28.527C73.9556 29.0676 74.104 29.6532 74.104 30.2838C74.104 30.482 74.095 30.6351 74.077 30.7432H68.2324C68.2684 31.2027 68.3944 31.6126 68.6103 31.973C68.8353 32.3243 69.1233 32.6036 69.4742 32.8108C69.8252 33.009 70.2031 33.1081 70.608 33.1081C71.04 33.1081 71.4449 33 71.8229 32.7838C72.2098 32.5676 72.4753 32.2838 72.6193 31.9324L73.6451 32.2162C73.4201 32.7387 73.0287 33.1667 72.4708 33.5C71.9129 33.8333 71.2784 34 70.5676 34ZM68.1919 29.9189H72.9972C72.9612 29.4595 72.8307 29.0541 72.6058 28.7027C72.3808 28.3514 72.0928 28.0766 71.7419 27.8784C71.3909 27.6802 71.004 27.5811 70.581 27.5811C70.1671 27.5811 69.7847 27.6802 69.4337 27.8784C69.0828 28.0766 68.7948 28.3514 68.5698 28.7027C68.3539 29.0541 68.2279 29.4595 68.1919 29.9189Z" fill="#BDBDBD"/>
<path d="M91.4969 34C90.9119 34 90.363 33.9054 89.8501 33.7162C89.3372 33.518 88.8962 33.2252 88.5273 32.8378L88.9862 32C89.3912 32.3784 89.7961 32.6486 90.201 32.8108C90.606 32.973 91.0199 33.0541 91.4429 33.0541C91.9288 33.0541 92.3247 32.964 92.6307 32.7838C92.9367 32.5946 93.0896 32.3198 93.0896 31.9595C93.0896 31.6982 93.0086 31.5045 92.8467 31.3784C92.6937 31.2523 92.4732 31.1486 92.1853 31.0676C91.8973 30.9775 91.5554 30.8784 91.1594 30.7703C90.4305 30.5631 89.8726 30.3198 89.4856 30.0405C89.1077 29.7523 88.9187 29.3333 88.9187 28.7838C88.9187 28.1171 89.1707 27.6036 89.6746 27.2432C90.1875 26.8739 90.84 26.6892 91.6318 26.6892C92.6937 26.6892 93.5306 27.009 94.1425 27.6486L93.6026 28.473C93.0536 27.9054 92.3742 27.6216 91.5644 27.6216C91.3214 27.6216 91.0829 27.6532 90.849 27.7162C90.615 27.7703 90.4215 27.8739 90.2685 28.027C90.1156 28.1712 90.0391 28.3784 90.0391 28.6486C90.0391 28.982 90.174 29.2207 90.444 29.3649C90.714 29.509 91.1099 29.6577 91.6318 29.8108C92.1628 29.964 92.6217 30.1171 93.0086 30.2703C93.4046 30.4234 93.7105 30.6216 93.9265 30.8649C94.1425 31.1081 94.2505 31.4459 94.2505 31.8784C94.2505 32.545 93.9985 33.0676 93.4946 33.4459C92.9907 33.8153 92.3247 34 91.4969 34Z" fill="#BDBDBD"/>
<path d="M98.7896 34C98.0877 34 97.4668 33.8333 96.9269 33.5C96.387 33.1667 95.964 32.7207 95.6581 32.1622C95.3521 31.6036 95.1991 30.9955 95.1991 30.3378C95.1991 29.6712 95.3521 29.0631 95.6581 28.5135C95.964 27.964 96.387 27.5225 96.9269 27.1892C97.4758 26.8559 98.1012 26.6892 98.8031 26.6892C99.514 26.6892 100.13 26.8604 100.652 27.2027C101.183 27.536 101.593 27.9775 101.881 28.527C102.178 29.0676 102.326 29.6532 102.326 30.2838C102.326 30.482 102.317 30.6351 102.299 30.7432H96.4545C96.4904 31.2027 96.6164 31.6126 96.8324 31.973C97.0574 32.3243 97.3453 32.6036 97.6963 32.8108C98.0472 33.009 98.4252 33.1081 98.8301 33.1081C99.2621 33.1081 99.667 33 100.045 32.7838C100.432 32.5676 100.697 32.2838 100.841 31.9324L101.867 32.2162C101.642 32.7387 101.251 33.1667 100.693 33.5C100.135 33.8333 99.5005 34 98.7896 34ZM96.414 29.9189H101.219C101.183 29.4595 101.053 29.0541 100.828 28.7027C100.603 28.3514 100.315 28.0766 99.964 27.8784C99.613 27.6802 99.2261 27.5811 98.8031 27.5811C98.3892 27.5811 98.0067 27.6802 97.6558 27.8784C97.3048 28.0766 97.0169 28.3514 96.7919 28.7027C96.5759 29.0541 96.45 29.4595 96.414 29.9189Z" fill="#BDBDBD"/>
<path d="M107.372 27.8514C106.778 27.8604 106.252 28.0135 105.793 28.3108C105.343 28.5991 105.023 29 104.834 29.5135V33.8649H103.647V26.8108H104.753V28.4459C104.996 27.9595 105.316 27.5676 105.712 27.2703C106.117 26.964 106.54 26.7928 106.981 26.7568C107.071 26.7568 107.147 26.7568 107.21 26.7568C107.273 26.7568 107.327 26.7613 107.372 26.7703V27.8514Z" fill="#BDBDBD"/>
<path d="M110.575 33.8649L107.808 26.8108H109.05L111.263 32.7297L113.477 26.8108H114.638L111.871 33.8649H110.575Z" fill="#BDBDBD"/>
<path d="M115.826 25.4865V24H117.014V25.4865H115.826ZM115.826 33.8649V26.8108H117.014V33.8649H115.826Z" fill="#BDBDBD"/>
<path d="M122.055 34C121.353 34 120.733 33.8333 120.193 33.5C119.653 33.1577 119.23 32.7072 118.924 32.1486C118.618 31.5901 118.465 30.982 118.465 30.3243C118.465 29.6577 118.613 29.0496 118.91 28.5C119.207 27.9505 119.626 27.5135 120.166 27.1892C120.706 26.8559 121.331 26.6892 122.042 26.6892C122.735 26.6892 123.338 26.8468 123.851 27.1622C124.373 27.4685 124.759 27.8829 125.011 28.4054L123.851 28.7703C123.671 28.4369 123.419 28.1802 123.095 28C122.771 27.8108 122.411 27.7162 122.015 27.7162C121.583 27.7162 121.187 27.8288 120.827 28.0541C120.476 28.2793 120.197 28.5901 119.99 28.9865C119.783 29.3739 119.68 29.8198 119.68 30.3243C119.68 30.8198 119.783 31.2703 119.99 31.6757C120.206 32.0721 120.49 32.3874 120.841 32.6216C121.2 32.8559 121.596 32.973 122.028 32.973C122.307 32.973 122.573 32.9234 122.825 32.8243C123.086 32.7252 123.311 32.5946 123.5 32.4324C123.698 32.2613 123.833 32.0766 123.905 31.8784L125.065 32.2297C124.858 32.7432 124.481 33.1667 123.932 33.5C123.392 33.8333 122.766 34 122.055 34Z" fill="#BDBDBD"/>
<path d="M129.464 34C128.762 34 128.141 33.8333 127.601 33.5C127.061 33.1667 126.638 32.7207 126.332 32.1622C126.026 31.6036 125.873 30.9955 125.873 30.3378C125.873 29.6712 126.026 29.0631 126.332 28.5135C126.638 27.964 127.061 27.5225 127.601 27.1892C128.15 26.8559 128.775 26.6892 129.477 26.6892C130.188 26.6892 130.804 26.8604 131.326 27.2027C131.857 27.536 132.267 27.9775 132.555 28.527C132.852 29.0676 133 29.6532 133 30.2838C133 30.482 132.991 30.6351 132.973 30.7432H127.128C127.164 31.2027 127.29 31.6126 127.506 31.973C127.731 32.3243 128.019 32.6036 128.37 32.8108C128.721 33.009 129.099 33.1081 129.504 33.1081C129.936 33.1081 130.341 33 130.719 32.7838C131.106 32.5676 131.371 32.2838 131.515 31.9324L132.541 32.2162C132.316 32.7387 131.925 33.1667 131.367 33.5C130.809 33.8333 130.174 34 129.464 34ZM127.088 29.9189H131.893C131.857 29.4595 131.727 29.0541 131.502 28.7027C131.277 28.3514 130.989 28.0766 130.638 27.8784C130.287 27.6802 129.9 27.5811 129.477 27.5811C129.063 27.5811 128.681 27.6802 128.33 27.8784C127.979 28.0766 127.691 28.3514 127.466 28.7027C127.25 29.0541 127.124 29.4595 127.088 29.9189Z" fill="#BDBDBD"/>
<path d="M79.8098 23.8521H78.3465V28H77.4633V23.8521H76V23H79.8098V23.8521Z" fill="#BDBDBD"/>
<path d="M84.1104 28V24.7183L82.9372 27.162H82.4408L81.2676 24.7183V28H80.378V23H81.332L82.6858 25.8451L84.0524 23H85V28H84.1104Z" fill="#BDBDBD"/>
</svg>
