<svg xmlns="http://www.w3.org/2000/svg"><symbol fill="none" id="sprite-au" viewBox="0 0 32 32"><title>au</title><path fill="#41479B" d="M29.603 5.517H2.397A2.397 2.397 0 000 7.914v16.172a2.397 2.397 0 002.397 2.397h27.206A2.397 2.397 0 0032 24.086V7.914a2.396 2.396 0 00-2.397-2.397z"/><path fill="#F5F5F5" d="M.552 16h.958l5.11-3.348V16h2.76v-3.348L14.49 16h.958a.552.552 0 00.552-.552v-.437l-4.385-2.873H16V9.379h-4.385L16 6.507v-.438a.552.552 0 00-.552-.552h-.958L9.38 8.866V5.517H6.62v3.349L1.679 5.627A2.402 2.402 0 00.32 6.717l4.064 2.662H0v2.759h4.385L0 15.01v.437c0 .305.247.552.552.552z"/><path fill="#FF4B55" d="M16 9.931H8.828V5.517H7.172v4.414H0v1.655h7.172V16h1.656v-4.414H16V9.931z"/><path fill="#FF4B55" d="M.514 6.431L5.056 9.38h1.013L.913 6.032a2.41 2.41 0 00-.399.4zm9.879 2.949l5.523-3.586a.544.544 0 00-.468-.277h-.119L9.379 9.38h1.014zm-4.801 2.758L.08 15.716A.545.545 0 00.552 16h.104l5.95-3.862H5.592zm10.399 3.354l-5.166-3.354H9.81l5.867 3.808a.546.546 0 00.313-.454z"/><path fill="#F5F5F5" d="M8.167 19.008l.416 1.375 1.335-.532a.124.124 0 01.148.186L9.25 21.22l1.247.711c.107.061.07.223-.053.232l-1.433.1.222 1.419a.124.124 0 01-.214.103l-.972-1.058-.971 1.058a.124.124 0 01-.214-.103l.221-1.42-1.433-.1a.124.124 0 01-.052-.23l1.247-.712-.815-1.183c-.07-.101.034-.231.148-.186l1.334.532.417-1.375c.035-.117.202-.117.237 0zM24.58 9.233l.204.672.651-.26a.06.06 0 01.073.09l-.399.578.61.348c.052.03.034.109-.026.113l-.7.049.108.693a.06.06 0 01-.104.05l-.475-.516-.475.516c-.04.045-.113.01-.104-.05l.108-.693-.7-.049c-.06-.004-.078-.083-.026-.113l.61-.348-.398-.577a.06.06 0 01.072-.091l.652.26.203-.672c.018-.057.099-.057.116 0zm-4.536 5.155l.203.671.652-.26c.056-.021.107.042.073.091l-.399.578.61.348c.052.03.034.109-.026.113l-.7.049.108.693a.06.06 0 01-.104.05l-.475-.517-.475.517a.06.06 0 01-.104-.05l.108-.693-.7-.05a.06.06 0 01-.026-.112l.61-.348L19 14.89a.06.06 0 01.072-.09l.652.26.203-.672a.06.06 0 01.116 0zm8.828-2.208l.203.672.652-.26a.06.06 0 01.072.091l-.398.578.61.348c.051.03.033.109-.026.113l-.7.049.108.693a.06.06 0 01-.105.05l-.474-.517-.475.517a.06.06 0 01-.104-.05l.108-.693-.7-.05a.06.06 0 01-.026-.112l.61-.348-.399-.578a.06.06 0 01.073-.09l.651.26.204-.672c.017-.057.098-.057.116 0zm-4.292 8.829l.204.671.651-.26a.06.06 0 01.073.09l-.399.579.61.348a.06.06 0 01-.026.112l-.7.05.108.693a.06.06 0 01-.104.05l-.475-.517-.475.517c-.04.044-.113.009-.104-.05l.108-.694-.7-.049a.06.06 0 01-.026-.113l.61-.347-.398-.578a.06.06 0 01.072-.09l.652.259.203-.671c.018-.058.099-.058.116 0zm1.574-5.414l-.163.49-.517.003a.07.07 0 00-.04.126l.415.306-.156.493a.07.07 0 00.107.077l.42-.3.42.3a.07.07 0 00.107-.077l-.156-.493.415-.306a.07.07 0 00-.04-.126l-.517-.004-.163-.49a.07.07 0 00-.132 0z"/></symbol><symbol fill="none" id="sprite-bank" viewBox="0 0 24 24"><title>bank</title><path d="M6.5 10h-2v7h2v-7zm6 0h-2v7h2v-7zm8.5 9H2v2h19v-2zm-2.5-9h-2v7h2v-7zm-7-6.74L16.71 6H6.29l5.21-2.74zm0-2.26L2 6v2h19V6l-9.5-5z" fill="#fff"/></symbol><symbol fill="none" id="sprite-ch" viewBox="0 0 32 32"><title>ch</title><path fill="#FF4B55" d="M29.603 26.483H2.397A2.396 2.396 0 010 24.086V7.914a2.397 2.397 0 012.397-2.397h27.206A2.397 2.397 0 0132 7.914v16.172a2.396 2.396 0 01-2.397 2.397z"/><path fill="#F5F5F5" d="M22.069 13.793h-3.862V9.931a.552.552 0 00-.552-.552h-3.31a.552.552 0 00-.552.552v3.862H9.931a.552.552 0 00-.552.552v3.31c0 .305.247.552.552.552h3.862v3.862c0 .305.247.552.552.552h3.31a.552.552 0 00.552-.552v-3.862h3.862a.552.552 0 00.552-.552v-3.31a.552.552 0 00-.552-.552z"/></symbol><symbol fill="none" id="sprite-check" viewBox="0 0 10 8"><title>check</title><path d="M1 4l2.5 2.5L9 1" stroke="#fff" stroke-width="1.5" stroke-linecap="round"/></symbol><symbol fill="none" id="sprite-dk" viewBox="0 0 32 32"><title>dk</title><path fill="#FF4B55" d="M29.603 26.483H2.397A2.396 2.396 0 010 24.086V7.914a2.397 2.397 0 012.397-2.397h27.206A2.397 2.397 0 0132 7.914v16.172a2.396 2.396 0 01-2.397 2.397z"/><path fill="#F5F5F5" d="M32 14.345H13.241V5.517h-3.31v8.828H0v3.31h9.931v8.828h3.31v-8.828H32v-3.31z"/></symbol><symbol fill="none" id="sprite-error" viewBox="0 0 60 56"><title>error</title><path d="M59.333 28l-6.506 7.413.906 9.814-9.626 2.186-5.04 8.48L30 52l-9.067 3.92-5.04-8.48-9.626-2.187.906-9.84L.667 28l6.506-7.44-.906-9.813 9.626-2.16 5.04-8.48L30 4 39.067.107l5.04 8.48 9.626 2.186-.906 9.814L59.333 28zm-7.12 0l-4.88-5.627.64-7.44-7.306-1.6-3.787-6.48L30 9.813l-6.88-2.96-3.787 6.48-7.306 1.574.64 7.44L7.787 28l4.88 5.6-.64 7.467 7.306 1.6 3.787 6.48L30 46.16l6.88 2.96 3.787-6.453 7.306-1.627-.64-7.44 4.88-5.6zm-24.88 8h5.334v5.333h-5.334V36zm0-21.333h5.334v16h-5.334v-16z" fill="#EB5757"/></symbol><symbol fill="none" id="sprite-eu" viewBox="0 0 32 32"><title>eu</title><path fill="#41479B" d="M29.603 5.517H2.397A2.397 2.397 0 000 7.914v16.172a2.397 2.397 0 002.397 2.397h27.206A2.397 2.397 0 0032 24.086V7.914a2.396 2.396 0 00-2.397-2.397z"/><path fill="#FFE15A" d="M16.224 7.918l.222.663.699.005c.09.001.128.117.055.17l-.563.416.211.666a.094.094 0 01-.144.106l-.569-.407-.569.407a.094.094 0 01-.145-.106l.211-.666-.562-.416a.094.094 0 01.055-.17l.7-.005.22-.663a.094.094 0 01.18 0zm0 14.242l.222.663.699.005c.09 0 .128.116.055.17l-.563.415.211.667a.094.094 0 01-.144.105l-.569-.407-.569.407a.094.094 0 01-.145-.105l.211-.667-.562-.415a.094.094 0 01.055-.17l.7-.005.22-.664a.094.094 0 01.18 0zm7.121-7.122l.221.664.7.005c.09 0 .128.116.055.17l-.563.416.211.666a.094.094 0 01-.145.105l-.568-.406-.57.406a.094.094 0 01-.144-.105l.211-.666-.563-.416a.094.094 0 01.056-.17l.699-.005.221-.664a.094.094 0 01.179 0zm-14.241 0l.22.664.7.005c.09 0 .128.116.055.17l-.562.416.21.666a.094.094 0 01-.144.105l-.569-.406-.569.406a.094.094 0 01-.144-.105l.21-.666-.562-.416a.094.094 0 01.055-.17l.7-.005.22-.664a.094.094 0 01.18 0zm1.069-3.718l.22.663.7.006c.09 0 .128.116.055.17l-.562.415.21.667a.094.094 0 01-.144.105l-.569-.407-.569.407a.094.094 0 01-.144-.105l.21-.667-.562-.415a.094.094 0 01.055-.17l.7-.006.22-.663a.094.094 0 01.18 0zm12.333 7.12l.221.664.7.005c.09.001.127.116.055.17l-.563.416.21.666a.094.094 0 01-.144.105l-.569-.406-.568.406a.094.094 0 01-.145-.105l.21-.666-.562-.416a.094.094 0 01.056-.17l.699-.005.221-.663a.094.094 0 01.179 0zM19.9 8.714l.22.663.7.005c.09.001.128.116.055.17l-.562.416.21.666a.094.094 0 01-.144.105l-.569-.406-.569.406a.094.094 0 01-.144-.105l.21-.666-.562-.416a.094.094 0 01.055-.17l.7-.005.22-.663a.094.094 0 01.18 0zm-7.121 12.333l.221.663.7.006c.09 0 .127.116.055.17l-.563.415.21.667a.094.094 0 01-.144.105l-.569-.407-.568.407a.094.094 0 01-.145-.105l.21-.667-.562-.415a.094.094 0 01.056-.17l.699-.006.221-.663a.094.094 0 01.179 0zm9.548-9.727l-.221.663-.7.006a.094.094 0 00-.055.17l.563.415-.211.667a.094.094 0 00.145.105l.569-.407.568.407a.094.094 0 00.145-.105l-.211-.667.563-.415a.094.094 0 00-.056-.17l-.699-.006-.221-.663a.094.094 0 00-.179 0zM9.994 18.44l-.221.664-.7.005a.094.094 0 00-.055.17l.563.416-.211.666a.094.094 0 00.144.105l.57-.406.568.406a.094.094 0 00.145-.105l-.211-.666.562-.416a.094.094 0 00-.055-.17l-.7-.005-.22-.663a.094.094 0 00-.18 0zM12.6 8.714l-.221.663-.7.005a.094.094 0 00-.055.17l.563.416-.211.666a.094.094 0 00.145.105l.568-.406.57.406a.094.094 0 00.144-.105l-.211-.666.563-.416a.094.094 0 00-.056-.17L13 9.377l-.221-.663a.094.094 0 00-.179 0zm7.12 12.333l-.22.663-.7.006a.094.094 0 00-.055.17l.563.415-.211.667a.094.094 0 00.144.105l.569-.407.569.407a.094.094 0 00.144-.105l-.21-.667.562-.415a.094.094 0 00-.055-.17l-.7-.006-.22-.663a.094.094 0 00-.18 0z"/></symbol><symbol fill="none" id="sprite-fi" viewBox="0 0 32 32"><title>fi</title><path fill="#F5F5F5" d="M29.603 26.483H2.397A2.396 2.396 0 010 24.086V7.914a2.397 2.397 0 012.397-2.397h27.206A2.397 2.397 0 0132 7.914v16.172a2.396 2.396 0 01-2.397 2.397z"/><path fill="#41479B" d="M32 14.345H13.241V5.517h-3.31v8.828H0v3.31h9.931v8.828h3.31v-8.828H32v-3.31z"/></symbol><symbol fill="none" id="sprite-folder-info" viewBox="0 0 24 24"><title>folder-info</title><path d="M21 11.1V8c0-1.1-.9-2-2-2h-8L9 4H3c-1.1 0-2 .9-2 2v12c0 1.1.9 2 2 2h7.2c1.2 1.8 3.4 3 5.8 3 3.9 0 7-3.1 7-7 0-1.9-.8-3.6-2-4.9zM9.3 18H3V8h16v1.7c-.9-.5-1.9-.7-3-.7-3.9 0-7 3.1-7 7 0 .7.1 1.4.3 2zm6.7 3c-2.8 0-5-2.2-5-5s2.2-5 5-5 5 2.2 5 5-2.2 5-5 5zm1-7h-2v-2h2v2zm0 6h-2v-5h2v5z" fill="#fff"/></symbol><symbol fill="none" id="sprite-id" viewBox="0 0 32 32"><title>id</title><path fill="#C8414B" d="M29.603 5.517H2.397A2.397 2.397 0 000 7.914V16h32V7.914a2.396 2.396 0 00-2.397-2.397z"/><path fill="#F5F5F5" d="M0 24.086a2.397 2.397 0 002.397 2.397h27.206A2.397 2.397 0 0032 24.086V16H0v8.086z"/></symbol><symbol fill="none" id="sprite-jp" viewBox="0 0 32 32"><title>jp</title><path fill="#F5F5F5" d="M29.603 5.517H2.397A2.397 2.397 0 000 7.914v16.172a2.397 2.397 0 002.397 2.397h27.206A2.397 2.397 0 0032 24.086V7.914a2.396 2.396 0 00-2.397-2.397z"/><path fill="#FF4B55" d="M16 22.069A6.069 6.069 0 1016 9.93a6.069 6.069 0 000 12.138z"/></symbol><symbol fill="none" id="sprite-link" viewBox="0 0 12 12"><title>link</title><path d="M7.333 0v1.333h2.394L3.173 7.887l.94.94 6.554-6.554v2.394H12V0H7.333zm3.334 10.667H1.333V1.333H6V0H1.333A1.333 1.333 0 000 1.333v9.334A1.333 1.333 0 001.333 12h9.334A1.334 1.334 0 0012 10.667V6h-1.333v4.667z" fill="#fff"/></symbol><symbol fill="none" id="sprite-mx" viewBox="0 0 32 32"><title>mx</title><path fill="#73AF00" d="M2.397 5.517A2.397 2.397 0 000 7.914v16.172a2.397 2.397 0 002.397 2.397h8.27V5.517h-8.27z"/><path fill="#F5F5F5" d="M21.334 5.517H10.667v20.966h10.667V5.517z"/><path fill="#FF4B55" d="M29.603 5.517h-8.27v20.966h8.27A2.397 2.397 0 0032 24.086V7.914a2.396 2.396 0 00-2.397-2.397z"/><path fill="#FFD250" d="M16.952 16.493L16 16.97v.476h.476l.476-.952z"/><path fill="#00C3A0" d="M16 18.634a.238.238 0 01-.238-.237v-.952a.238.238 0 11.476 0v.952a.238.238 0 01-.238.237z"/><path fill="#00C3A0" d="M16 17.683c-.934 0-1.837-.36-2.54-1.015a.238.238 0 11.323-.349 3.254 3.254 0 002.217.888c.814 0 1.601-.315 2.217-.888a.238.238 0 01.324.349 3.73 3.73 0 01-2.54 1.015z"/><path fill="#00AADC" d="M16 18.634c-.61 0-1.2-.178-1.709-.515l.264-.396c.859.57 2.031.57 2.89 0l.263.396a3.077 3.077 0 01-1.708.515z"/><path fill="#732D37" d="M15.623 15.423l-.525.813-.09.267 1.369-.317-.754-.763z"/><path fill="#AAD264" d="M14.544 16.765c-.629 0-1.384-.53-1.584-1.709l.47-.08c.166.981.769 1.314 1.131 1.313.111-.003.227-.042.236-.12.01-.094.013-.116-.235-.2-.136-.046-.289-.098-.396-.221-.436-.497.153-1.023.437-1.276.05-.044.07-.082.065-.097-.016-.04-.109-.102-.214-.102-.303 0-.532-.17-.599-.445a.635.635 0 01.311-.713l.219.423c-.059.03-.082.116-.067.177.006.025.02.082.136.082.291 0 .568.172.659.409.038.1.096.363-.193.621-.313.28-.5.49-.396.608.023.026.124.06.19.083.214.072.613.207.556.705-.036.314-.316.531-.695.541h-.031z"/><path fill="#874150" d="M16.476 14.114s.476-.951-.476-1.427c0 0 3.33-.476 2.855 3.806-.313-.25-.776-.706-.942-1.07l-1.437-.833v-.476z"/><path fill="#732D37" d="M16 15.066l2.379 1.427-.952.476L16 15.542v-.476z"/><path fill="#783C46" d="M15.048 13.639c.263 0 .476.213.476.475a.933.933 0 00-.175 1.077l.107.215a.93.93 0 00.175.243l1.32 1.32v-.657c0-.82-.19-1.627-.556-2.36a1.428 1.428 0 00-1.277-.79h-.07v.476z"/><path fill="#FFD250" d="M15.049 13.163l-.476.476v.475s.566-.287.756-.378c.134-.064.11-.215.033-.288-.06-.056-.313-.285-.313-.285z"/><path fill="#AAD264" d="M16 19.586a4.049 4.049 0 01-4.044-4.044h.476c0 1.968 1.6 3.568 3.568 3.568s3.569-1.6 3.569-3.568h.475A4.049 4.049 0 0116 19.586z"/><path fill="#FFE15A" d="M12.457 17.276a.323.323 0 100-.645.323.323 0 000 .645zm.714 1.14a.323.323 0 100-.645.323.323 0 000 .645zm1.159.862a.323.323 0 100-.645.323.323 0 000 .645zm5.247-2.002a.323.323 0 100-.645.323.323 0 000 .645zm-.715 1.14a.323.323 0 100-.645.323.323 0 000 .645zm-1.159.862a.323.323 0 100-.645.323.323 0 000 .645z"/><path fill="#FFB478" d="M16.238 18.872h-.476a.476.476 0 010-.951h.476a.476.476 0 010 .951z"/><path fill="#9B4B5A" d="M17.913 15.423c.159.466.496.892.942 1.07C19.33 12.211 16 12.687 16 12.687c2.379 0 1.913 2.736 1.913 2.736z"/></symbol><symbol fill="none" id="sprite-no" viewBox="0 0 32 32"><title>no</title><path fill="#FF4B55" d="M29.603 26.483H2.397A2.396 2.396 0 010 24.086V7.914a2.397 2.397 0 012.397-2.397h27.206A2.397 2.397 0 0132 7.914v16.172a2.396 2.396 0 01-2.397 2.397z"/><path fill="#F5F5F5" d="M32 13.241H14.345V5.517H8.828v7.724H0v5.518h8.828v7.724h5.517v-7.724H32V13.24z"/><path fill="#41479B" d="M32 14.345H13.241V5.517h-3.31v8.828H0v3.31h9.931v8.828h3.31v-8.828H32v-3.31z"/></symbol><symbol fill="none" id="sprite-nz" viewBox="0 0 32 32"><title>nz</title><path fill="#41479B" d="M29.603 26.483H2.397A2.396 2.396 0 010 24.086V7.914a2.397 2.397 0 012.397-2.397h27.206A2.397 2.397 0 0132 7.914v16.172a2.396 2.396 0 01-2.397 2.397z"/><path fill="#F5F5F5" d="M.552 16h.958l5.11-3.348V16h2.76v-3.348L14.49 16h.958a.552.552 0 00.552-.552v-.437l-4.385-2.873H16V9.379h-4.385L16 6.507v-.438a.552.552 0 00-.552-.552h-.958L9.38 8.866V5.517H6.62v3.349L1.679 5.627A2.402 2.402 0 00.32 6.717l4.064 2.662H0v2.759h4.385L0 15.01v.437c0 .305.247.552.552.552z"/><path fill="#FF4B55" d="M16 9.931H8.828V5.517H7.172v4.414H0v1.655h7.172V16h1.656v-4.414H16V9.931z"/><path fill="#FF4B55" d="M.514 6.431L5.056 9.38h1.013L.913 6.032a2.41 2.41 0 00-.399.4zm9.879 2.949l5.523-3.586a.544.544 0 00-.468-.277h-.119L9.379 9.38h1.014zm-4.801 2.758L.08 15.716A.545.545 0 00.552 16h.104l5.95-3.862H5.592zm10.399 3.354l-5.166-3.354H9.81l5.867 3.808a.546.546 0 00.313-.454zm8.726 7.515a.113.113 0 01-.064-.02L24 22.52l-.653.467a.11.11 0 01-.17-.123l.243-.766-.646-.476a.11.11 0 01.065-.2l.802-.006.254-.761a.11.11 0 01.21 0l.254.761.802.006a.11.11 0 01.065.2l-.645.476.242.765a.111.111 0 01-.106.144z"/><path fill="#F5F5F5" d="M24 20.69l.279.836.881.007-.709.523.266.84-.717-.512-.717.513.266-.84-.71-.524.882-.007.279-.836zm0-.221a.22.22 0 00-.21.15l-.228.687-.724.006a.22.22 0 00-.13.398l.583.43-.218.69a.22.22 0 00.338.246l.59-.42.588.42a.222.222 0 00.258 0 .22.22 0 00.08-.246l-.218-.69.582-.43a.22.22 0 00-.129-.398l-.723-.006-.23-.686a.221.221 0 00-.209-.151z"/><path fill="#FF4B55" d="M24.717 14.112a.112.112 0 01-.064-.02L24 13.624l-.653.468a.111.111 0 01-.13 0 .111.111 0 01-.04-.124l.243-.765-.646-.477a.11.11 0 01.065-.199l.802-.006.254-.761a.11.11 0 01.21 0l.254.761.802.006a.111.111 0 01.065.2l-.645.476.242.765a.111.111 0 01-.106.144z"/><path fill="#F5F5F5" d="M24 11.795l.279.836.881.006-.709.524.266.84L24 13.49l-.717.512.266-.84-.71-.524.882-.006.279-.836zm0-.221a.22.22 0 00-.21.15l-.228.687-.724.006a.22.22 0 00-.13.398l.583.43-.218.69a.22.22 0 00.338.246l.59-.42.588.42a.221.221 0 00.339-.246l-.219-.69.582-.43a.22.22 0 00-.129-.398l-.723-.006-.23-.686a.221.221 0 00-.209-.151z"/><path fill="#FF4B55" d="M28.58 16.87a.112.112 0 01-.065-.02l-.653-.467-.653.467a.111.111 0 01-.129 0 .111.111 0 01-.04-.123l.242-.765-.645-.477a.11.11 0 01.064-.2l.803-.005.253-.762a.11.11 0 01.21 0l.254.762.802.006a.11.11 0 01.105.076.111.111 0 01-.04.123l-.645.477.242.765a.111.111 0 01-.106.144z"/><path fill="#F5F5F5" d="M27.862 14.553l.279.836.881.007-.709.524.266.84-.717-.513-.717.513.266-.84-.71-.524.882-.007.28-.836zm0-.22a.22.22 0 00-.21.15l-.228.687-.724.005a.22.22 0 00-.13.399l.583.43-.218.69a.22.22 0 00.338.246l.59-.421.588.42a.22.22 0 00.339-.245l-.218-.69.582-.43a.22.22 0 00-.13-.399l-.723-.005-.23-.687a.221.221 0 00-.209-.15z"/><path fill="#FF4B55" d="M20.855 17.974a.111.111 0 01-.064-.02l-.653-.468-.653.468a.111.111 0 01-.129 0 .111.111 0 01-.04-.124l.242-.765-.646-.477a.11.11 0 01.065-.199l.803-.006.253-.761a.11.11 0 01.21 0l.254.761.802.006a.11.11 0 01.105.076.111.111 0 01-.04.123l-.645.477.242.765a.111.111 0 01-.106.144z"/><path fill="#F5F5F5" d="M20.138 15.657l.279.836.881.007-.709.523.266.84-.717-.512-.717.512.266-.84-.71-.523.882-.007.279-.836zm0-.221a.22.22 0 00-.21.15l-.228.687-.724.006a.22.22 0 00-.13.398l.583.43-.218.69a.22.22 0 00.338.246l.59-.42.588.42a.222.222 0 00.258 0 .22.22 0 00.08-.246l-.218-.69.582-.43a.22.22 0 00-.129-.398l-.724-.006-.229-.686a.221.221 0 00-.209-.151z"/></symbol><symbol fill="none" id="sprite-se" viewBox="0 0 32 32"><title>se</title><path fill="#4173CD" d="M29.603 5.517H2.397A2.397 2.397 0 000 7.914v16.172a2.397 2.397 0 002.397 2.397h27.206A2.397 2.397 0 0032 24.086V7.914a2.396 2.396 0 00-2.397-2.397z"/><path fill="#FFE15A" d="M32 14.345H13.241V5.517h-3.31v8.828H0v3.31h9.931v8.828h3.31v-8.828H32v-3.31z"/></symbol><symbol fill="none" id="sprite-sg" viewBox="0 0 32 32"><title>sg</title><path fill="#F5F5F5" d="M29.603 26.483H2.397A2.397 2.397 0 010 24.086V7.914a2.397 2.397 0 012.397-2.397h27.206A2.397 2.397 0 0132 7.914v16.172a2.397 2.397 0 01-2.397 2.397z"/><path fill="#FF4B55" d="M29.603 5.517H2.397A2.397 2.397 0 000 7.914V16h32V7.914a2.396 2.396 0 00-2.397-2.397z"/><path fill="#F5F5F5" d="M0 16h32v9.931a.552.552 0 01-.552.552H.552A.552.552 0 010 25.93V16zm4.535-5.234a3.648 3.648 0 013.07-3.596.084.084 0 00.006-.167 3.776 3.776 0 00-1.363-.062c-1.874.255-3.324 1.878-3.35 3.77a3.863 3.863 0 003.861 3.92c.293 0 .577-.035.85-.098a.084.084 0 00-.005-.166 3.646 3.646 0 01-3.069-3.6z"/><path fill="#F5F5F5" d="M7.634 11.737l-.164.49-.516.004a.07.07 0 00-.04.125l.415.307-.156.492a.07.07 0 00.107.078l.42-.3.42.3a.07.07 0 00.106-.078l-.155-.492.415-.307a.07.07 0 00-.04-.125l-.517-.004-.163-.49a.07.07 0 00-.132 0zm2.551 0l-.163.49-.516.004a.07.07 0 00-.04.125l.414.307-.155.492a.07.07 0 00.106.078l.42-.3.42.3a.07.07 0 00.107-.078l-.156-.492.416-.307a.07.07 0 00-.041-.125l-.516-.004-.164-.49a.07.07 0 00-.132 0zM8.921 7.8l-.163.49-.516.003a.07.07 0 00-.041.126l.415.306-.155.492a.07.07 0 00.106.078l.42-.3.42.3a.07.07 0 00.107-.078l-.156-.492.415-.306a.07.07 0 00-.04-.126l-.516-.004-.164-.49a.07.07 0 00-.132 0zM6.887 9.308l-.164.49-.516.004a.07.07 0 00-.04.125l.415.307-.156.492a.07.07 0 00.107.078l.42-.3.42.3a.07.07 0 00.106-.078l-.155-.492.415-.307a.07.07 0 00-.04-.125l-.517-.004-.163-.49a.07.07 0 00-.132 0zm4.051 0l-.163.49-.516.004a.07.07 0 00-.04.125l.414.307-.155.492a.07.07 0 00.106.078l.42-.3.42.3a.07.07 0 00.107-.078l-.156-.492.416-.307a.07.07 0 00-.041-.125l-.516-.004-.164-.49a.07.07 0 00-.132 0z"/></symbol><symbol fill="none" id="sprite-success" viewBox="0 0 60 56"><title>success</title><path d="M59.333 28l-6.4-7.467.8-9.866-9.6-2.134L39.067 0 30 4l-9.067-4-5.066 8.533-9.6 2.134.8 9.866L.667 28l6.4 7.467-.8 9.866 9.6 2.134L20.933 56 30 52l9.067 4 5.066-8.533 9.6-2.134-.8-9.866 6.4-7.467zM47.867 41.067l-7.2 1.6-3.734 6.4L30 46.133l-6.933 2.934-3.734-6.4-7.2-1.6.534-7.467-4.8-5.6 4.8-5.6-.534-7.467 7.2-1.6 3.734-6.4L30 9.867l6.933-2.934 3.734 6.4 7.2 1.6-.534 7.467 4.8 5.6-4.8 5.6.534 7.467zm-5.6-24.8L46 20 24.667 41.333 14 30.667l3.733-3.734 6.934 6.934 17.6-17.6z" fill="#27AE60"/></symbol><symbol fill="none" id="sprite-trademark" viewBox="0 0 24 24"><title>trademark</title><path d="M9.8 8.44H6.87V16H4.89V8.44H2V7h7.8v1.44zM13.5 7l2.46 6.5L18.41 7H21v9h-2v-2.5l.22-4.26L16.63 16h-1.35L12.7 9.25l.2 4.25V16h-1.97V7h2.57z" fill="#fff"/></symbol><symbol fill="none" id="sprite-uk" viewBox="0 0 32 32"><title>uk</title><path fill="#41479B" d="M29.603 5.517H2.397A2.397 2.397 0 000 7.914v16.172a2.397 2.397 0 002.397 2.397h27.206A2.397 2.397 0 0032 24.086V7.914a2.396 2.396 0 00-2.397-2.397z"/><path fill="#F5F5F5" d="M31.967 7.518a2.397 2.397 0 00-2.364-2h-.623l-10.221 6.696V5.517H13.24v6.697L3.021 5.517h-.624a2.397 2.397 0 00-2.364 2l8.736 5.724H0v5.518h8.77L.032 24.482a2.397 2.397 0 002.364 2h.623l10.221-6.696v6.697h5.518v-6.697l10.22 6.697h.624a2.397 2.397 0 002.364-2l-8.736-5.724H32V13.24h-8.77l8.737-5.723z"/><path fill="#FF4B55" d="M17.655 5.517h-3.31v8.828H0v3.31h14.345v8.828h3.31v-8.828H32v-3.31H17.655V5.517z"/><path fill="#FF4B55" d="M1.55 26.328l11.66-7.57h-2.026L.576 25.645c.26.303.594.54.973.684zm20.1-7.569h-2.027l11.294 7.331c.316-.207.58-.488.768-.817L21.65 18.759zM.253 6.842l9.858 6.4h2.027L.968 5.99c-.3.223-.546.515-.715.852zm20.532 6.399l10.628-6.898a2.4 2.4 0 00-.982-.679L18.76 13.241h2.026z"/></symbol></svg>