<svg xmlns="http://www.w3.org/2000/svg" fill="none" viewBox="0 0 32 32"><path fill="#41479B" d="M29.603 5.517H2.397A2.397 2.397 0 0 0 0 7.914v16.172a2.397 2.397 0 0 0 2.397 2.397h27.206A2.397 2.397 0 0 0 32 24.086V7.914a2.396 2.396 0 0 0-2.397-2.397z"/><path fill="#F5F5F5" d="M.552 16h.958l5.11-3.348V16h2.76v-3.348L14.49 16h.958a.552.552 0 0 0 .552-.552v-.437l-4.385-2.873H16V9.379h-4.385L16 6.507v-.438a.552.552 0 0 0-.552-.552h-.958L9.38 8.866V5.517H6.62v3.349L1.679 5.627A2.402 2.402 0 0 0 .32 6.717l4.064 2.662H0v2.759h4.385L0 15.01v.437c0 .305.247.552.552.552z"/><path fill="#FF4B55" d="M16 9.931H8.828V5.517H7.172v4.414H0v1.655h7.172V16h1.656v-4.414H16V9.931z"/><path fill="#FF4B55" d="M.514 6.431L5.056 9.38h1.013L.913 6.032a2.41 2.41 0 0 0-.399.4zM10.393 9.38l5.523-3.586a.544.544 0 0 0-.468-.277h-.119L9.379 9.38h1.014zM5.592 12.138L.08 15.716A.545.545 0 0 0 .552 16h.104l5.95-3.862H5.592zM15.991 15.492l-5.166-3.354H9.81l5.867 3.808a.546.546 0 0 0 .313-.454z"/><path fill="#F5F5F5" d="M8.167 19.008l.416 1.375 1.335-.532a.124.124 0 0 1 .148.186L9.25 21.22l1.247.711c.107.061.07.223-.053.232l-1.433.1.222 1.419a.124.124 0 0 1-.214.103l-.972-1.058-.971 1.058a.124.124 0 0 1-.214-.103l.221-1.42-1.433-.1a.124.124 0 0 1-.052-.23l1.247-.712-.815-1.183c-.07-.101.034-.231.148-.186l1.334.532.417-1.375c.035-.117.202-.117.237 0zM24.58 9.233l.204.672.651-.26a.06.06 0 0 1 .073.09l-.399.578.61.348c.052.03.034.109-.026.113l-.7.049.108.693c.01.06-.064.095-.104.05l-.475-.516-.475.516c-.04.045-.113.01-.104-.05l.108-.693-.7-.049c-.06-.004-.078-.083-.026-.113l.61-.348-.398-.577a.06.06 0 0 1 .072-.091l.652.26.203-.672c.018-.057.099-.057.116 0zM20.044 14.388l.203.671.652-.26c.056-.021.107.042.073.091l-.399.578.61.348c.052.03.034.109-.026.113l-.7.049.108.693a.06.06 0 0 1-.104.05l-.475-.517-.475.517a.06.06 0 0 1-.104-.05l.108-.693-.7-.05a.06.06 0 0 1-.026-.112l.61-.348L19 14.89c-.034-.05.016-.112.072-.09l.652.26.203-.672a.06.06 0 0 1 .116 0zM28.872 12.18l.203.672.652-.26a.06.06 0 0 1 .072.091l-.398.578.61.348c.051.03.033.109-.026.113l-.7.049.108.693a.06.06 0 0 1-.105.05l-.474-.517-.475.517a.06.06 0 0 1-.104-.05l.108-.693-.7-.05a.06.06 0 0 1-.026-.112l.61-.348-.399-.578a.06.06 0 0 1 .073-.09l.651.26.204-.672c.017-.057.098-.057.116 0zM24.58 21.009l.204.671.651-.26a.06.06 0 0 1 .073.09l-.399.579.61.348c.052.03.034.108-.026.112l-.7.05.108.693a.06.06 0 0 1-.104.05l-.475-.517-.475.517c-.04.044-.113.009-.104-.05l.108-.694-.7-.049a.06.06 0 0 1-.026-.113l.61-.347-.398-.578a.06.06 0 0 1 .072-.09l.652.259.203-.671c.018-.058.099-.058.116 0zM26.154 15.595l-.163.49-.517.003a.07.07 0 0 0-.04.126l.415.306-.156.493a.07.07 0 0 0 .107.077l.42-.3.42.3a.07.07 0 0 0 .107-.077l-.156-.493.415-.306a.07.07 0 0 0-.04-.126l-.517-.004-.163-.49a.07.07 0 0 0-.132 0z"/></svg>