<svg width="32" height="21" viewBox="0 0 32 21" fill="none" xmlns="http://www.w3.org/2000/svg">
<path d="M32 0H0V7.02598H32V0Z" fill="#AE1C28"/>
<path d="M32 7.02588H0V14.0909H32V7.02588Z" fill="white"/>
<path d="M32 14.0913H0V21.0002H32V14.0913Z" fill="#21468B"/>
<path d="M27.3319 7.02588H4.82812V14.0909H27.3319V7.02588Z" fill="black"/>
<path d="M12.2532 5.38135C11.8432 4.64162 11.2046 4.09551 10.3443 3.73706C10.0293 3.0078 9.53803 2.47469 8.94944 2.04987C9.16265 1.61272 9.66732 1.11291 8.87602 0.891715C8.43436 0.865309 8.38198 1.3009 8.37679 1.7925C8.26734 1.77025 8.21301 1.55116 8.14186 1.39215C8.05327 1.00672 7.86181 0.805843 7.51048 0.891715C7.0134 1.08973 7.33501 1.53292 7.53985 1.56373C7.66966 1.8274 7.57864 1.95873 7.34897 2.00698C6.94467 1.57503 6.23655 1.76633 6.26241 2.00698C6.40671 2.68967 6.61795 3.01578 6.99657 2.45022C7.21702 2.39765 7.70186 2.77462 7.11403 2.96495C6.8484 3.03115 6.59705 3.10449 6.80569 3.4082C7.08736 3.98752 7.50491 3.75968 7.92161 3.53688L8.31806 3.76565C8.11258 3.88198 7.90416 3.99716 7.83351 4.166C7.70581 4.72241 8.23032 5.12547 8.55299 4.48056C9.52921 4.73057 9.36362 5.11938 8.53831 4.981C8.85821 5.27674 9.22276 5.4234 9.63955 5.39565C9.56097 5.93466 10.5876 6.21537 11.1226 6.611L12.1357 6.25354L12.2532 5.38135Z" fill="#FFCC00" stroke="black" stroke-width="0.2"/>
<path d="M13.2031 5.84326C12.3402 5.86363 10.5817 6.99956 9.86349 7.58363C9.05317 7.52637 8.34245 7.71102 7.68672 8.02922C7.38329 7.64595 7.15466 6.9813 6.59339 7.56778C6.36895 7.93912 6.74388 8.18211 7.19149 8.40953C7.12149 8.49443 6.89633 8.44224 6.71853 8.43189C6.32558 8.33399 6.0549 8.40908 5.97419 8.75294C5.93003 9.27415 6.4815 9.19599 6.60259 9.03218C6.90278 9.03907 6.98172 9.17762 6.92173 9.39884C6.34305 9.55386 6.19704 10.2552 6.42902 10.3419C7.11932 10.5262 7.51358 10.4907 7.16762 9.90568C7.21947 9.69051 7.78435 9.44065 7.69202 10.0371C7.63214 10.2977 7.58531 10.5491 7.95789 10.5057C8.61585 10.524 8.59665 10.0583 8.58169 9.59557L8.97085 9.35523C8.98414 9.58632 8.99506 9.81943 9.11756 9.95731C9.56892 10.3205 10.1757 10.048 9.73172 9.47551C10.4032 8.7416 10.684 9.06163 10.1831 9.71518C10.5988 9.57164 10.8984 9.32174 11.062 8.94742C10.9363 9.8896 12.5844 9.02792 13.6255 8.27207C13.9708 7.93849 14.0862 7.45564 14.1004 6.90714L13.2031 5.84326Z" fill="#FFCC00" stroke="black" stroke-width="0.2"/>
<path d="M17.016 10.0659C16.6601 10.3199 15.9562 10.3954 14.8564 10.2681C13.3881 10.101 12.1011 10.3002 11.1602 11.1983C10.4888 11.8246 9.82041 12.325 9.1875 11.3398C9.22162 11.9305 9.4717 12.4242 10.0389 12.7755C10.4884 13.2015 10.4671 13.6789 10.3919 13.9685C10.8826 13.8666 10.986 13.3432 11.1602 12.8968C12.2849 13.1478 13.8445 15.0717 11.3263 15.4648C11.249 14.9726 11.0775 14.6721 10.7848 14.6182C10.1698 14.7815 10.3007 15.1088 10.2562 15.3975C9.96858 14.8914 9.19378 15.9625 9.80106 16.191C9.86591 16.284 9.93555 16.3742 9.86713 16.5413C9.78791 16.7892 10.0039 16.9583 10.2269 16.9488C10.3589 17.0112 10.4516 17.0844 10.4471 17.1847C10.3765 17.4523 10.7018 17.5157 10.9463 17.6208C11.2524 17.8047 11.401 17.6308 11.5337 17.4207C11.5945 17.5999 11.6734 17.7726 12.099 17.821C12.3626 17.8782 12.5132 17.7852 12.5615 17.5565C13.4366 17.3054 13.8736 16.7031 14.441 16.2053C14.7358 16.4605 15.0638 16.5864 15.4174 16.6128C15.0685 16.0722 14.9162 15.5762 15.1531 15.1687C15.3442 14.8318 15.2837 14.5307 15.2045 14.2322C15.7388 14.3496 16.0519 14.0488 16.2543 13.5387C15.8097 13.6006 15.4547 13.5587 15.3219 13.2599C14.1106 11.9372 17.1578 11.005 18.7138 11.4297L18.4642 10.4002L17.016 10.0659Z" fill="#FFCC00" stroke="black" stroke-width="0.2"/>
<path d="M13.4863 7.41181C13.7705 9.0117 15.1521 9.73451 16.9809 10.0999C18.1906 10.5337 18.7805 11.2582 18.9338 12.1874C18.9814 12.6373 18.6884 12.9628 18.4346 13.3027C17.8705 13.7393 17.7127 14.2006 17.7738 14.6753C17.7462 15.9599 17.0924 15.4022 16.7607 15.1328C16.9549 16.1116 18.0362 16.3556 18.5227 15.476C19.6101 15.9657 19.8941 16.7109 18.7723 16.8915C19.8895 17.081 20.6285 16.3351 19.5799 15.0757C21.3032 14.8605 21.9228 16.6026 20.1378 17.5349C19.7087 17.7659 19.2945 17.8372 18.9044 17.6493C18.6374 17.2539 18.3481 17.0031 17.9647 17.3634C17.5358 17.6722 17.77 17.9502 18.1556 18.2213L17.9647 18.4929C17.3839 18.4827 17.3756 19.3227 18.185 19.3794C18.4205 19.4528 18.4927 19.5968 18.3758 19.8227C18.6927 20.3622 19.048 20.0881 19.4037 19.8084C19.2789 20.0835 19.407 20.2573 19.9469 20.2659C20.7904 20.1171 20.8129 19.8135 20.4462 19.4366C21.0949 19.727 21.71 19.9694 21.7823 19.4366L21.8411 19.0363C22.5176 19.134 22.9007 18.7121 23.1479 18.0497L23.6177 18.1927C23.2217 17.5682 23.2283 17.272 23.5884 17.264C23.7749 17.2598 24.0561 17.719 24.4253 17.4777C23.9415 16.9357 23.9152 16.4234 24.0142 15.9192C24.2195 15.258 24.0958 15.1841 24.0876 14.9041C24.4481 14.9615 24.7095 14.762 24.9539 14.518C25.4747 13.9351 25.5725 14.117 25.8496 13.9747C24.801 13.8031 23.5853 14.022 23.0892 12.5592C23.0091 11.6867 22.3703 11.056 21.5915 10.4859C22.0706 10.434 22.5317 10.557 22.9717 10.8863C23.4423 11.2297 23.9162 11.5361 24.4253 11.4296C24.9676 11.6021 25.3008 11.9783 25.2182 12.7593C25.9403 12.3076 26.268 11.8184 25.3944 11.2151C26.3042 10.2675 26.0209 9.35122 25.4972 8.44128C26.1655 7.43677 25.4429 6.59644 24.8658 5.73892C24.359 4.70842 24.4349 3.89622 25.4531 3.43691C26.0959 3.35128 26.4967 3.88986 25.8936 4.43778C25.3639 5.00753 25.1993 5.58874 25.879 6.19647C25.8058 5.70079 25.8855 5.20512 26.3195 4.70945C27.2832 3.68923 27.3862 2.87018 26.3929 2.30735C27.1483 2.46571 27.3808 2.03002 27.4354 1.39227C27.1964 1.88483 26.7295 1.93346 26.0992 1.66393C25.6565 1.4597 25.2943 1.51674 24.9686 1.69253C25.193 0.970987 25.7085 0.8366 26.481 1.22069C25.9989 -0.0877364 23.9691 0.813069 23.6324 2.46463C21.8473 -1.93389 17.7088 1.47232 19.6239 3.40832C20.6588 4.27347 21.4221 5.66008 20.4902 5.83901C20.9336 5.90769 21.342 5.89456 21.5915 5.51015C22.6637 6.70388 21.979 8.52355 20.4755 7.45471C19.958 6.89836 19.7862 6.32855 19.7561 5.75322C19.5429 6.10157 19.4729 6.44373 19.4771 6.78269C18.0687 6.08754 17.5288 7.00157 17.7151 7.76927C18.1756 6.90423 18.8614 6.94997 19.4918 7.85506C20.6783 9.38183 23.9975 8.48047 22.5899 5.86761L22.0613 4.50928C22.1209 3.76369 21.8598 3.22929 21.2538 2.92218C21.9875 2.5581 21.8505 1.37968 21.0776 1.32078C21.4784 1.77825 21.3126 2.535 20.7692 2.16437C20.4233 2.06458 20.0862 1.99729 19.9323 2.60762C19.5866 0.0833468 22.9569 0.227061 23.0745 3.60849C22.672 4.54264 22.7553 5.47679 23.515 6.41094L24.161 7.28313C24.0959 7.87142 24.5749 8.2831 25.0861 8.68435C25.5641 9.84734 25.0585 11.3767 23.6177 10.5431C23.0354 10.1808 22.4098 9.87114 21.518 9.8854C18.1602 9.22055 16.8455 7.32577 16.175 5.44732L14.2205 6.11068L13.4863 7.41181Z" fill="#FFCC00" stroke="black" stroke-width="0.2"/>
<path d="M6.35781 1.95211C5.94605 1.93849 5.67521 2.07124 5.67775 2.48796C5.87593 2.2891 6.1328 2.30746 6.39934 2.36158C6.58912 2.25311 6.50157 1.96408 6.35781 1.95211Z" fill="white" stroke="black" stroke-width="0.2"/>
<path d="M6.86709 3.18814C6.4769 3.31697 6.27164 3.53429 6.42512 3.9233C6.53842 3.6691 6.78541 3.59797 7.05441 3.55696C7.19263 3.39023 7.00593 3.14991 6.86709 3.18814Z" fill="white" stroke="black" stroke-width="0.2"/>
<path d="M7.62731 0.844895C7.33678 0.560423 7.04604 0.476594 6.75488 0.78201C7.03914 0.769205 7.21345 0.953858 7.36966 1.17102C7.58424 1.21849 7.72366 0.949471 7.62731 0.844895V0.844895Z" fill="white" stroke="black" stroke-width="0.2"/>
<path d="M9.09439 0.981572C8.96245 0.6015 8.73947 0.401416 8.33984 0.550513C8.60077 0.661081 8.6736 0.901661 8.71546 1.16364C8.88656 1.29839 9.13351 1.11681 9.09439 0.981572V0.981572Z" fill="white" stroke="black" stroke-width="0.2"/>
<path d="M8.01509 4.64926C7.62738 4.78498 7.3278 4.73934 7.19922 4.34187C7.45039 4.47211 7.68917 4.37805 7.92589 4.24707C8.14066 4.29376 8.14818 4.595 8.01509 4.64926V4.64926Z" fill="white" stroke="black" stroke-width="0.2"/>
<path d="M7.04774 7.38375C6.84262 7.0358 6.58403 6.88162 6.22168 7.10335C6.49967 7.16255 6.61902 7.38481 6.71226 7.63391C6.90694 7.7338 7.11305 7.50903 7.04774 7.38375V7.38375Z" fill="white" stroke="black" stroke-width="0.2"/>
<path d="M6.28555 8.39303C5.87378 8.3794 5.60294 8.51216 5.60549 8.92888C5.80366 8.73002 6.06054 8.74838 6.32708 8.8025C6.51685 8.69403 6.42931 8.405 6.28555 8.39303Z" fill="white" stroke="black" stroke-width="0.2"/>
<path d="M6.34676 10.1293C6.26171 10.5218 6.34909 10.8046 6.77102 10.8742C6.60419 10.6498 6.66722 10.4066 6.7681 10.1603C6.69124 9.95952 6.38375 9.99345 6.34676 10.1293H6.34676Z" fill="white" stroke="black" stroke-width="0.2"/>
<path d="M8.41136 10.2812C8.44406 10.6811 8.32019 10.9506 7.89258 10.9671C8.08757 10.7653 8.05705 10.5162 7.98942 10.2594C8.09206 10.0699 8.39255 10.1419 8.41136 10.2812V10.2812Z" fill="white" stroke="black" stroke-width="0.2"/>
<path d="M10.8092 14.6321C10.5931 14.2905 10.3297 14.1442 9.97461 14.3768C10.2544 14.4275 10.3807 14.6461 10.4819 14.8922C10.6796 14.9862 10.8785 14.7553 10.8092 14.6321V14.6321Z" fill="white" stroke="black" stroke-width="0.2"/>
<path d="M9.93715 15.4508C9.61252 15.2037 9.31333 15.1558 9.06348 15.4941C9.34389 15.447 9.54044 15.6091 9.7232 15.8056C9.94218 15.8267 10.0461 15.5429 9.93715 15.4508Z" fill="white" stroke="black" stroke-width="0.2"/>
<path d="M9.83445 16.5523C9.44143 16.6726 9.23126 16.8855 9.37585 17.2777C9.49491 17.026 9.74346 16.9602 10.0133 16.925C10.1553 16.7613 9.97413 16.517 9.83445 16.5523V16.5523Z" fill="white" stroke="black" stroke-width="0.2"/>
<path d="M11.0722 17.633C10.8854 17.9906 10.6351 18.1573 10.2617 17.9537C10.5363 17.8809 10.644 17.6531 10.7241 17.3997C10.9134 17.2904 11.1309 17.5047 11.0722 17.633Z" fill="white" stroke="black" stroke-width="0.2"/>
<path d="M12.246 17.8288C12.0592 18.1864 11.8089 18.3532 11.4355 18.1495C11.7101 18.0767 11.8178 17.8489 11.898 17.5955C12.0872 17.4862 12.3047 17.7005 12.246 17.8288V17.8288Z" fill="white" stroke="black" stroke-width="0.2"/>
<path d="M20.2354 20.1165C20.2359 20.5177 20.0907 20.7769 19.6631 20.7607C19.8737 20.5744 19.8633 20.3238 19.8165 20.0626C19.9341 19.8815 20.2279 19.9762 20.2354 20.1165Z" fill="white" stroke="black" stroke-width="0.2"/>
<path d="M21.5854 19.6074C21.6622 20.0015 21.5688 20.2825 21.1455 20.3437C21.3171 20.1226 21.2592 19.8782 21.1635 19.6299C21.2446 19.4307 21.5513 19.4708 21.5854 19.6074V19.6074Z" fill="white" stroke="black" stroke-width="0.2"/>
<path d="M18.5139 19.7404C18.1674 19.9575 18.0223 20.2168 18.2681 20.558C18.3147 20.2846 18.5367 20.1573 18.7874 20.054C18.88 19.8596 18.6391 19.6706 18.5139 19.7404V19.7404Z" fill="white" stroke="black" stroke-width="0.2"/>
<path d="M17.7119 18.6158C17.301 18.5871 17.0252 18.7099 17.0117 19.1264C17.2174 18.9349 17.4734 18.9627 17.7377 19.0265C17.9315 18.925 17.8551 18.633 17.7119 18.6158Z" fill="white" stroke="black" stroke-width="0.2"/>
<path d="M18.1856 17.2954C17.8349 17.0849 17.5321 17.0695 17.3223 17.4327C17.5956 17.3556 17.8094 17.4955 18.0133 17.6711C18.2334 17.6685 18.3044 17.3752 18.1856 17.2954Z" fill="white" stroke="black" stroke-width="0.2"/>
<path d="M11.0879 2.44241C11.5195 1.84249 12.2205 1.8455 12.666 2.41208C13.0814 2.95283 13.4967 2.99387 13.912 2.83672C14.4896 2.65084 14.7648 2.88112 15.0437 3.11981C14.7909 3.01629 14.5273 2.92472 14.0573 3.05914C13.413 3.19454 12.75 3.61231 12.1573 2.96815C11.8616 2.67465 11.5964 2.3215 11.0879 2.44241V2.44241Z" fill="#AE1C28" stroke="black" stroke-width="0.2"/>
<path d="M13.8024 1.46372C13.9956 1.44483 14.1942 1.43778 14.1988 0.999033C14.343 0.646054 14.4828 0.289285 15.4102 0.620131C16.3499 0.880025 17.011 1.05316 18.3762 0.827454C18.1857 1.12679 17.9938 1.29501 17.7694 1.43686C17.9787 1.49997 17.9881 1.67004 18.0091 1.86407C18.2318 2.12141 18.4545 2.34671 18.6772 2.36451C18.5883 2.76649 18.2203 2.7712 17.7742 2.66477C18.0321 2.82912 17.9642 3.16652 17.9284 3.48692C17.8892 3.83087 17.9789 4.19573 18.1046 4.56644C17.9185 4.54523 17.7257 4.54023 17.62 4.32337C17.4974 4.88946 17.479 5.45555 17.8779 6.02164C16.5891 5.63624 16.6971 6.50963 16.6631 7.2551C16.3837 7.00474 16.3234 6.7708 16.4036 6.54738C16.6182 6.08249 16.287 5.8323 16.0609 5.76888C16.1566 6.34508 15.8038 6.71011 15.6249 6.79003C15.0936 7.13796 15.1002 7.6097 15.6456 8.20547C14.6831 8.18456 14.2228 7.68933 13.9013 7.06301C13.3984 7.91669 12.6252 8.0778 11.7521 7.98305C12.0567 7.81769 12.3613 7.70377 12.6658 7.26521C12.8854 6.88792 13.124 6.57481 13.5172 6.77991C13.4378 6.22166 12.0886 5.9568 11.4303 7.42698L11.2849 6.89113C10.7363 6.90099 10.1307 7.21553 9.72754 6.44627C10.3145 6.62116 10.8798 6.58554 11.3888 6.00142C12.0805 5.18677 12.6718 4.19173 13.9636 4.45453C14.5784 4.47297 14.9003 4.3408 15.1057 4.131C14.5303 4.15398 14.4538 3.76588 14.375 3.37968L14.654 3.42258L14.6981 3.15806L14.9697 3.42258C15.9884 3.25925 15.4005 2.10485 14.7201 2.40741L14.7054 2.72197L14.5072 2.50749C12.8875 2.73165 13.2605 1.21478 13.8024 1.46372V1.46372Z" fill="#FFCC00" stroke="black" stroke-width="0.2"/>
<path d="M17.8898 1.35449C17.4699 1.5965 17.0236 1.66314 16.665 1.57785C17.4478 2.2784 16.4736 3.11268 15.7326 2.17123C16.3314 2.90586 16.0164 4.13521 15.0498 4.13723" stroke="black" stroke-width="0.2"/>
<path d="M14.7373 1.34583C15.0034 0.936159 15.447 0.974051 15.9469 1.15374C15.7149 1.53337 15.3558 1.6787 14.7373 1.34583Z" fill="white" stroke="black" stroke-width="0.2"/>
<path d="M15.5002 1.27973C15.5002 1.40536 15.4038 1.50721 15.2848 1.50721C15.1658 1.50721 15.0693 1.40536 15.0693 1.27973C15.0693 1.15409 15.1658 1.05225 15.2848 1.05225C15.4038 1.05225 15.5002 1.15409 15.5002 1.27973Z" fill="black"/>
<path d="M15.2999 1.2297C15.2999 1.26623 15.2695 1.29583 15.232 1.29583C15.1945 1.29583 15.1641 1.26623 15.1641 1.2297C15.1641 1.19318 15.1945 1.16357 15.232 1.16357C15.2695 1.16357 15.2999 1.19318 15.2999 1.2297Z" fill="white"/>
<path d="M9.82543 9.95452C9.85813 10.3545 9.73426 10.624 9.30664 10.6404C9.50164 10.4386 9.47112 10.1896 9.40348 9.93274C9.50613 9.7432 9.80661 9.81522 9.82543 9.95452Z" fill="white" stroke="black" stroke-width="0.2"/>
</svg>
