<svg xmlns="http://www.w3.org/2000/svg" fill="none" viewBox="0 0 32 32"><path fill="#FF4B55" d="M29.603 26.483H2.397A2.396 2.396 0 0 1 0 24.086V7.914a2.397 2.397 0 0 1 2.397-2.397h27.206A2.397 2.397 0 0 1 32 7.914v16.172a2.396 2.396 0 0 1-2.397 2.397z"/><path fill="#F5F5F5" d="M22.069 13.793h-3.862V9.931a.552.552 0 0 0-.552-.552h-3.31a.552.552 0 0 0-.552.552v3.862H9.931a.552.552 0 0 0-.552.552v3.31c0 .305.247.552.552.552h3.862v3.862c0 .305.247.552.552.552h3.31a.552.552 0 0 0 .552-.552v-3.862h3.862a.552.552 0 0 0 .552-.552v-3.31a.552.552 0 0 0-.552-.552z"/></svg>