<svg xmlns="http://www.w3.org/2000/svg" fill="none" viewBox="0 0 32 32"><path fill="#EE1C25" d="M30 6H2a2 2 0 0 0-2 2v16a2 2 0 0 0 2 2h28a2 2 0 0 0 2-2V8a2 2 0 0 0-2-2z"/><path fill="#FF0" d="M5 8l1.854 5L2 9.91h6L3.146 13 5 8zM11.084 7.08l-.178 1.895-1.044-1.632 1.867.745-1.977.427 1.332-1.435zM13.566 9.304l-.949 1.681-.287-1.883 1.413 1.365-1.999-.326 1.822-.837zM13.802 12.657l-1.598 1.172.558-1.828.695 1.786-1.683-1.062 2.028-.068zM11.043 14.064l-.094 1.9-1.115-1.589 1.898.671-1.956.504 1.267-1.486z"/></svg>