<svg width="60" height="56" viewBox="0 0 60 56" fill="none" xmlns="http://www.w3.org/2000/svg">
<path d="M59.3333 28L52.8266 35.4134L53.7333 45.2267L44.1066 47.4134L39.0666 55.8934L30 52L20.9333 55.92L15.8933 47.44L6.26663 45.2534L7.17329 35.4134L0.666626 28L7.17329 20.56L6.26663 10.7467L15.8933 8.58669L20.9333 0.106689L30 4.00002L39.0666 0.106689L44.1066 8.58669L53.7333 10.7734L52.8266 20.5867L59.3333 28ZM52.2133 28L47.3333 22.3734L47.9733 14.9334L40.6666 13.3334L36.88 6.85336L30 9.81336L23.12 6.85336L19.3333 13.3334L12.0266 14.9067L12.6666 22.3467L7.78663 28L12.6666 33.6L12.0266 41.0667L19.3333 42.6667L23.12 49.1467L30 46.16L36.88 49.12L40.6666 42.6667L47.9733 41.04L47.3333 33.6L52.2133 28ZM27.3333 36H32.6666V41.3334H27.3333V36ZM27.3333 14.6667H32.6666V30.6667H27.3333V14.6667Z" fill="#EB5757"/>
</svg>
