<svg xmlns="http://www.w3.org/2000/svg" fill="none" viewBox="0 0 32 32"><path fill="#41479B" d="M29.603 5.517H2.397A2.397 2.397 0 0 0 0 7.914v16.172a2.397 2.397 0 0 0 2.397 2.397h27.206A2.397 2.397 0 0 0 32 24.086V7.914a2.396 2.396 0 0 0-2.397-2.397z"/><path fill="#FFE15A" d="M16.224 7.918l.222.663.699.005c.09.001.128.117.055.17l-.563.416.211.666a.094.094 0 0 1-.144.106l-.569-.407-.569.407a.094.094 0 0 1-.145-.106l.211-.666-.562-.416a.094.094 0 0 1 .055-.17l.7-.005.22-.663a.094.094 0 0 1 .18 0zM16.224 22.16l.222.663.699.005c.09 0 .128.116.055.17l-.563.415.211.667a.094.094 0 0 1-.144.105l-.569-.407-.569.407a.094.094 0 0 1-.145-.105l.211-.667-.562-.415a.094.094 0 0 1 .055-.17l.7-.005.22-.664a.094.094 0 0 1 .18 0zM23.345 15.038l.221.664.7.005c.09 0 .128.116.055.17l-.563.416.211.666a.094.094 0 0 1-.145.105l-.568-.406-.57.406a.094.094 0 0 1-.144-.105l.211-.666-.563-.416a.094.094 0 0 1 .056-.17l.699-.005.221-.664a.094.094 0 0 1 .179 0zM9.104 15.038l.22.664.7.005c.09 0 .128.116.055.17l-.562.416.21.666a.094.094 0 0 1-.144.105l-.569-.406-.569.406a.094.094 0 0 1-.144-.105l.21-.666-.562-.416a.094.094 0 0 1 .055-.17l.7-.005.22-.664a.094.094 0 0 1 .18 0zM10.173 11.32l.22.663.7.006c.09 0 .128.116.055.17l-.562.415.21.667a.094.094 0 0 1-.144.105l-.569-.407-.569.407a.094.094 0 0 1-.144-.105l.21-.667-.562-.415a.094.094 0 0 1 .055-.17l.7-.006.22-.663a.094.094 0 0 1 .18 0zM22.506 18.44l.221.664.7.005c.09.001.127.116.055.17l-.563.416.21.666a.094.094 0 0 1-.144.105l-.569-.406-.568.406a.094.094 0 0 1-.145-.105l.21-.666-.562-.416a.094.094 0 0 1 .056-.17l.699-.005.221-.663a.094.094 0 0 1 .179 0zM19.9 8.714l.22.663.7.005c.09.001.128.116.055.17l-.562.416.21.666a.094.094 0 0 1-.144.105l-.569-.406-.569.406a.094.094 0 0 1-.144-.105l.21-.666-.562-.416a.094.094 0 0 1 .055-.17l.7-.005.22-.663a.094.094 0 0 1 .18 0zM12.779 21.047l.221.663.7.006c.09 0 .127.116.055.17l-.563.415.21.667a.094.094 0 0 1-.144.105l-.569-.407-.568.407a.094.094 0 0 1-.145-.105l.21-.667-.562-.415a.094.094 0 0 1 .056-.17l.699-.006.221-.663a.094.094 0 0 1 .179 0zM22.327 11.32l-.221.663-.7.006a.094.094 0 0 0-.055.17l.563.415-.211.667a.094.094 0 0 0 .145.105l.569-.407.568.407a.094.094 0 0 0 .145-.105l-.211-.667.563-.415a.094.094 0 0 0-.056-.17l-.699-.006-.221-.663a.094.094 0 0 0-.179 0zM9.994 18.44l-.221.664-.7.005a.094.094 0 0 0-.055.17l.563.416-.211.666a.094.094 0 0 0 .144.105l.57-.406.568.406a.094.094 0 0 0 .145-.105l-.211-.666.562-.416a.094.094 0 0 0-.055-.17l-.7-.005-.22-.663a.094.094 0 0 0-.18 0zM12.6 8.714l-.221.663-.7.005a.094.094 0 0 0-.055.17l.563.416-.211.666a.094.094 0 0 0 .145.105l.568-.406.57.406a.094.094 0 0 0 .144-.105l-.211-.666.563-.416a.094.094 0 0 0-.056-.17L13 9.377l-.221-.663a.094.094 0 0 0-.179 0zM19.72 21.047l-.22.663-.7.006a.094.094 0 0 0-.055.17l.563.415-.211.667a.094.094 0 0 0 .144.105l.569-.407.569.407a.094.094 0 0 0 .144-.105l-.21-.667.562-.415a.094.094 0 0 0-.055-.17l-.7-.006-.22-.663a.094.094 0 0 0-.18 0z"/></svg>