<svg xmlns="http://www.w3.org/2000/svg" fill="none" viewBox="0 0 32 32"><path fill="#DE2910" d="M32 22.923c0 1.7-1.592 3.077-3.556 3.077H3.556C1.592 26 0 24.622 0 22.923V9.077C0 7.377 1.592 6 3.556 6h24.888C30.408 6 32 7.378 32 9.077v13.846z"/><path fill="#fff" d="M17.445 8.179c-.537-.28-1.145-.428-1.809-.276-.805.185-1.787 1.02-2.055 1.991-.126.458-.232.862-.225 1.237.004.257.003.688.034 1.113.022.3.172.952.41 1.526l.015-.006c.13.437.563 1.114.986 1.67.485.637.865.924.941.923a.501.501 0 0 1-.144-.121c-.277-.348-.554-.982-.611-1.411-.11-.838.032-1.445.264-2.173.058-.182.178-.234.257-.187.006.003.01.011.016.017.049.045.079.128.035.279-.111.39-.383 1.369-.238 2.064.133.64.324 1.023.548 1.293a2.27 2.27 0 0 1-.198-.883c-.003-.2-.02-.397.08-.575.166-.3.41-.46.692-.613.194-.105.377-.248.545-.355.765-.488 1.022-1.451 1-1.84l-.018-.291c.016-.106-.032-.397-.16-.688a3.262 3.262 0 0 0-.365-.598c-.062-.085-.096-.182-.13-.241-.131-.227-.131-.484-.13-.646.002-.192.027-.215.082-.306.043-.073.09-.172.238-.25.108-.058.353-.04.497.033.123.061.146.056.209.09.057.032.205.11.196.079-.035-.118-.465-.598-.962-.855zm-3.322 8.77c-.837-.114-1.385-.411-2.027-.827-.16-.103-.18-.232-.116-.296l.006-.003c.052-.046.147-.059.295.03.348.21 1.22.73 1.929.775.577.035.966-.028 1.27-.144a2.345 2.345 0 0 1-.79-.06c-.193-.05-.388-.088-.534-.231-.242-.241-.332-.52-.403-.832-.049-.216-.137-.43-.196-.621-.262-.868-1.12-1.376-1.502-1.46l-.284-.06c-.098-.044-.391-.074-.706-.032-.236.032-.484.12-.675.192-.098.037-.2.043-.266.06-.255.065-.502-.004-.657-.05-.185-.053-.2-.083-.273-.162-.059-.06-.142-.131-.178-.296-.026-.119.057-.35.166-.469.093-.1.094-.124.143-.177.046-.047.161-.168.128-.167-.12 0-.698.285-1.08.693-.414.443-.721.989-.753 1.668-.039.826.5 1.997 1.363 2.517.405.244.767.456 1.13.55.25.065.663.183 1.08.268.297.06.963.093 1.58.018v-.017c.456-.008 1.224-.242 1.872-.498.819-.325 1.219-.654 1.159-.684l-.011.009c-.008.009-.023.011-.04.014-.034.026-.057.053-.11.076-.407.175-1.092.276-1.52.216zm2.236 1.041c-.054-.768-.203-1.207-.272-1.279.006.023.016.034.02.06.054.441-.042 1.127-.22 1.522-.346.771-.785 1.213-1.364 1.713-.096.082-.19.106-.256.088a.109.109 0 0 1-.084-.083c-.013-.064.021-.157.133-.259.3-.275 1.045-.964 1.287-1.634.186-.518.239-.897.222-1.213a2.296 2.296 0 0 1-.305.775c-.106.168-.2.342-.381.437-.303.16-.596.16-.915.132-.22-.018-.451.002-.652-.002-.906-.012-1.65.653-1.845.99l-.143.254c-.072.079-.19.349-.243.662a3.201 3.201 0 0 0-.023.701c.006.105-.02.204-.023.273-.016.261-.156.477-.247.612-.107.159-.14.164-.236.21-.075.037-.168.095-.336.08-.121-.011-.317-.16-.397-.3-.067-.118-.09-.126-.125-.19-.031-.057-.111-.205-.121-.173-.037.116.06.753.333 1.24.297.53.725.986 1.363 1.222.774.287 2.054.128 2.81-.538.357-.313.668-.595.868-.91.138-.218.374-.576.582-.949.147-.263.378-.89.495-1.5l-.015-.005c.128-.436.139-1.239.09-1.936z"/><path fill="#fff" d="M21.77 20.505c-.16-.447-.307-.838-.53-1.14-.151-.209-.398-.56-.67-.89-.19-.233-.688-.678-1.214-1.01l-.008.012c-.36-.28-1.104-.584-1.77-.794-.695-.218-1.165-.253-1.29-.224a.489.489 0 0 1 .193.02c.427.125 1.017.487 1.31.806.569.625.797 1.204 1.026 1.934.058.184-.012.297-.107.3-.002 0-.002.005-.005.005-.004 0-.005-.006-.008-.008-.067-.006-.141-.056-.194-.21-.132-.383-.47-1.34-.986-1.83-.475-.448-.85-.653-1.19-.747-.063-.017-.096-.045-.13-.07-.004.003-.008.002-.013.008l.127.075c.177.095.46.32.672.607.117.162.245.313.267.517.036.34-.07.611-.21.9-.099.198-.166.42-.242.606-.344.838.002 1.773.245 2.079l.183.226c.048.096.256.305.527.47.203.125.451.212.646.279.099.033.181.091.245.12.237.11.385.32.478.455.11.157.102.19.11.297.006.083.025.19-.05.341-.055.108-.265.236-.424.26-.135.02-.15.038-.223.047-.064.008-.232.028-.204.05.093.076.721.22 1.274.144.602-.082 1.184-.313 1.638-.82.549-.619.868-1.869.528-2.815z"/><path fill="#fff" d="M24.009 13.395c-.441-.699-1.553-1.35-2.558-1.284-.471.032-.89.066-1.24.195-.243.089-.65.23-1.04.399-.278.12-.841.477-1.305.89l.01.012c-.37.269-.868.9-1.252 1.482-.404.612-.56 1.04-.564 1.167.012-.05.024-.102.065-.168.236-.377.744-.846 1.132-1.04.755-.379 1.374-.444 2.139-.465.192-.005.281.092.26.182a.122.122 0 0 1-.022.041c-.037.05-.103.095-.241.102-.404.024-1.418.088-2.028.453-.561.337-.86.642-1.042.943a.327.327 0 0 1-.104.108c.002.004 0 .008.003.013l.109-.102c.14-.143.434-.354.768-.479.186-.069.368-.15.57-.115.337.058.57.235.807.451.164.149.359.275.514.398.713.56 1.708.486 2.069.338l.268-.115c.104-.019.362-.162.597-.377.175-.162.328-.374.443-.543.06-.087.139-.15.185-.202.17-.198.413-.283.567-.335.181-.061.21-.045.316-.023.082.017.19.027.314.141.09.083.155.32.132.48-.019.135-.004.156-.016.227-.01.064-.035.23-.008.21.099-.069.41-.633.49-1.186.085-.6.025-1.223-.338-1.798z"/><path fill="#DE2910" d="M15.813 11.216l-.325.49-.557-.13-.015-.004.365.462-.297.489-.008.014.552-.205.385.446-.026-.59.528-.222.015-.006-.568-.157-.049-.587zm-4.07 3.609l-.002-.016-.304.504-.58-.111.386.446-.276.501-.008.015.543-.229.391.417.012.012-.05-.586.518-.244.016-.007-.574-.134-.072-.568zm9.198-.17l-.571-.146-.062-.585-.314.497-.561-.118-.015-.003.376.453-.287.496-.007.014.546-.219.383.426.012.012-.037-.588.522-.233.015-.007zm-6.968 4.963l-.002-.015-.303.505-.561-.104L13.09 20l.386.444-.272.504-.008.014.542-.232.393.415.012.012-.053-.585.517-.248.014-.008-.574-.13-.075-.568zm5.135-.45l-.001-.017-.332.488-.555-.139-.016-.003.36.466-.303.486-.008.013.553-.199.367.438.011.014-.016-.589.53-.216.016-.005-.566-.165-.04-.573z"/></svg>