<svg xmlns="http://www.w3.org/2000/svg" fill="none" viewBox="0 0 32 32"><mask id="a" style="mask-type:alpha" width="32" height="20" x="0" y="6" maskUnits="userSpaceOnUse"><rect width="32" height="20" y="6" fill="#C4C4C4" rx="2"/></mask><g mask="url(#a)"><path fill="#fff" d="M32 6H0v20h32V6z"/><path fill="#FF9932" d="M32 6H0v6.667h32V6z"/><path fill="#128807" d="M32 19.333H0V26h32v-6.667z"/><path fill="navy" d="M16 13c-1.767 0-3.2 1.343-3.2 3s1.433 3 3.2 3c1.767 0 3.2-1.343 3.2-3s-1.433-3-3.2-3zm-.003.292l-.081 1.507.085.86.086-.86-.082-1.507c.082 0 .164.004.244.01l-.002.015c0 .069.06.125.133.125a.13.13 0 0 0 .13-.107c.08.013.158.03.234.048l-.494 1.436-.155.852.32-.81.336-1.476c.079.02.156.043.232.069a.117.117 0 0 0-.01.045c0 .069.06.124.132.124.054 0 .101-.03.122-.074.073.032.145.067.215.104l-.875 1.266-.385.786.534-.705.732-1.343c.07.038.137.079.202.121a.117.117 0 0 0-.028.076c0 .069.06.125.133.125.043 0 .08-.02.105-.05.062.05.122.1.18.154l-1.194 1.01-.589.666.71-.551 1.077-1.12c.058.054.112.11.164.168a.12.12 0 0 0-.05.096c0 .069.06.124.133.124.03 0 .056-.009.078-.024.046.062.09.126.131.192l-1.433.687-.751.499.837-.36 1.35-.82c.043.068.081.14.117.212a.124.124 0 0 0-.08.114c0 .068.059.124.132.124a.138.138 0 0 0 .049-.009c.025.067.048.136.068.206l-1.574.315-.864.3.908-.145 1.532-.464c.02.072.038.146.053.22a.127.127 0 0 0-.114.123c0 .07.06.125.133.125h.014c.007.074.011.15.011.226l-1.607-.077-.917.08.917.08 1.607-.076c0 .077-.004.153-.011.228h-.014c-.073 0-.133.054-.133.123 0 .062.05.114.113.123a2.57 2.57 0 0 1-.052.22l-.547-.166-.984-.299-.908-.145.004.002-.004-.001.864.3 1.573.315a2.545 2.545 0 0 1-.073.216.141.141 0 0 0-.02-.005h-.001a.137.137 0 0 0-.027-.003c-.073 0-.132.056-.132.124 0 .017.003.033.01.048.01.019.022.035.038.048l.01.007.011.006.01.005a2.673 2.673 0 0 1-.112.2l-1.35-.818-.837-.361.003.002.437.29.31.208h.001l1.432.686a2.73 2.73 0 0 1-.132.194.136.136 0 0 0-.077-.023c-.073 0-.133.056-.133.124a.12.12 0 0 0 .048.095 2.821 2.821 0 0 1-.16.165l-1.078-1.119-.708-.55.586.663 1.194 1.011a2.893 2.893 0 0 1-.174.15.138.138 0 0 0-.083-.029c-.073 0-.132.056-.132.125 0 .018.004.036.012.052-.07.045-.141.088-.215.128l-.732-1.342-.533-.705.385.785.873 1.266c-.069.037-.14.072-.212.104a.133.133 0 0 0-.12-.074c-.074 0-.132.056-.132.124 0 .016.003.031.009.045a3.016 3.016 0 0 1-.234.069l-.336-1.475-.32-.81.155.85.494 1.437c-.077.019-.156.036-.236.049a.13.13 0 0 0-.13-.106c-.074 0-.133.056-.133.124v.013c-.079.006-.16.01-.241.01l.082-1.506-.086-.86-.086.86.082 1.507c-.082 0-.165-.004-.246-.01l.001-.014c0-.068-.06-.124-.133-.124a.13.13 0 0 0-.13.105 3.084 3.084 0 0 1-.232-.048l.495-1.436.155-.851-.32.809-.337 1.476a3.014 3.014 0 0 1-.231-.068.114.114 0 0 0 .01-.046c0-.068-.06-.124-.132-.124a.133.133 0 0 0-.122.074 2.942 2.942 0 0 1-.215-.105l.874-1.265.385-.785-.533.704-.732 1.343c-.071-.038-.14-.08-.207-.124a.12.12 0 0 0 .026-.073c0-.069-.06-.125-.133-.125a.135.135 0 0 0-.103.047 2.876 2.876 0 0 1-.175-.15l1.194-1.012.588-.664v-.001l-.709.552-1.078 1.119a2.779 2.779 0 0 1-.164-.168.12.12 0 0 0 .05-.096c0-.069-.06-.124-.132-.124-.03 0-.057.01-.079.025a2.671 2.671 0 0 1-.13-.192l1.432-.687.752-.5-.838.361-1.35.82a2.597 2.597 0 0 1-.11-.197.125.125 0 0 0 .087-.116c0-.069-.06-.125-.133-.125-.02 0-.039.004-.056.012a2.542 2.542 0 0 1-.074-.22l1.573-.317.865-.3-.908.145-1.532.465a2.558 2.558 0 0 1-.053-.222.127.127 0 0 0 .114-.122c0-.069-.06-.124-.133-.124h-.014a2.587 2.587 0 0 1-.011-.227l1.607.077.917-.08-.917-.08-1.607.076c0-.076.004-.152.011-.227a.136.136 0 0 0 .022.002c.073 0 .133-.055.133-.124a.127.127 0 0 0-.122-.123 2.58 2.58 0 0 1 .053-.221l1.532.464.908.145-.864-.3-1.574-.316c.021-.073.046-.146.073-.217a.141.141 0 0 0 .049.01c.073 0 .131-.056.131-.124a.124.124 0 0 0-.079-.114c.035-.069.072-.136.112-.202l1.35.82.838.36-.752-.5-1.432-.686c.04-.066.084-.13.13-.192.023.015.05.025.08.025.074 0 .133-.056.133-.124 0-.04-.02-.075-.051-.098.051-.057.105-.113.162-.166l1.078 1.12.71.551-.588-.665-1.194-1.01c.057-.054.117-.105.178-.154a.135.135 0 0 0 .103.046c.073 0 .132-.055.132-.123a.118.118 0 0 0-.025-.074c.066-.043.134-.084.204-.122L15.285 15l.533.704-.384-.785-.875-1.266a2.94 2.94 0 0 1 .211-.103c.02.046.067.079.123.079.073 0 .133-.056.133-.124a.118.118 0 0 0-.011-.05c.076-.027.155-.05.235-.07l.337 1.475.32.81-.155-.85-.495-1.437a3.07 3.07 0 0 1 .236-.049.13.13 0 0 0 .13.106c.074 0 .133-.056.133-.124v-.014c.08-.006.16-.01.241-.01z"/></g></svg>