<svg xmlns="http://www.w3.org/2000/svg" fill="none" viewBox="0 0 32 32"><path fill="#73AF00" d="M2.397 5.517A2.397 2.397 0 0 0 0 7.914v16.172a2.397 2.397 0 0 0 2.397 2.397h8.27V5.517h-8.27z"/><path fill="#F5F5F5" d="M21.334 5.517H10.667v20.966h10.667V5.517z"/><path fill="#FF4B55" d="M29.603 5.517h-8.27v20.966h8.27A2.397 2.397 0 0 0 32 24.086V7.914a2.396 2.396 0 0 0-2.397-2.397z"/><path fill="#FFD250" d="M16.952 16.493L16 16.97v.476h.476l.476-.952z"/><path fill="#00C3A0" d="M16 18.634a.238.238 0 0 1-.238-.237v-.952a.238.238 0 1 1 .476 0v.952a.238.238 0 0 1-.238.237z"/><path fill="#00C3A0" d="M16 17.683c-.934 0-1.837-.36-2.54-1.015a.238.238 0 1 1 .323-.349 3.254 3.254 0 0 0 2.217.888c.814 0 1.601-.315 2.217-.888a.238.238 0 0 1 .324.349 3.73 3.73 0 0 1-2.54 1.015z"/><path fill="#00AADC" d="M16 18.634c-.61 0-1.2-.178-1.709-.515l.264-.396c.859.57 2.031.57 2.89 0l.263.396a3.077 3.077 0 0 1-1.708.515z"/><path fill="#732D37" d="M15.623 15.423l-.525.813-.09.267 1.369-.317-.754-.763z"/><path fill="#AAD264" d="M14.544 16.765c-.629 0-1.384-.53-1.584-1.709l.47-.08c.166.981.769 1.314 1.131 1.313.111-.003.227-.042.236-.12.01-.094.013-.116-.235-.2-.136-.046-.289-.098-.396-.221-.436-.497.153-1.023.437-1.276.05-.044.07-.082.065-.097-.016-.04-.109-.102-.214-.102-.303 0-.532-.17-.599-.445a.635.635 0 0 1 .311-.713l.219.423c-.059.03-.082.116-.067.177.006.025.02.082.136.082.291 0 .568.172.659.409.038.1.096.363-.193.621-.313.28-.5.49-.396.608.023.026.124.06.19.083.214.072.613.207.556.705-.036.314-.316.531-.695.541h-.031z"/><path fill="#874150" d="M16.476 14.114s.476-.951-.476-1.427c0 0 3.33-.476 2.855 3.806-.313-.25-.776-.706-.942-1.07l-1.437-.833v-.476z"/><path fill="#732D37" d="M16 15.066l2.379 1.427-.952.476L16 15.542v-.476z"/><path fill="#783C46" d="M15.048 13.639c.263 0 .476.213.476.475a.933.933 0 0 0-.175 1.077l.107.215a.93.93 0 0 0 .175.243l1.32 1.32v-.657c0-.82-.19-1.627-.556-2.36a1.428 1.428 0 0 0-1.277-.79h-.07v.476z"/><path fill="#FFD250" d="M15.049 13.163l-.476.476v.475s.566-.287.756-.378c.134-.064.11-.215.033-.288-.06-.056-.313-.285-.313-.285z"/><path fill="#AAD264" d="M16 19.586a4.049 4.049 0 0 1-4.044-4.044h.476c0 1.968 1.6 3.568 3.568 3.568s3.569-1.6 3.569-3.568h.475A4.049 4.049 0 0 1 16 19.586z"/><path fill="#FFE15A" d="M12.457 17.276a.323.323 0 1 0 0-.645.323.323 0 0 0 0 .645zM13.171 18.416a.323.323 0 1 0 0-.645.323.323 0 0 0 0 .645zM14.33 19.278a.323.323 0 1 0 0-.645.323.323 0 0 0 0 .645zM19.577 17.276a.323.323 0 1 0 0-.645.323.323 0 0 0 0 .645zM18.862 18.416a.323.323 0 1 0 0-.645.323.323 0 0 0 0 .645zM17.703 19.278a.323.323 0 1 0 0-.645.323.323 0 0 0 0 .645z"/><path fill="#FFB478" d="M16.238 18.872h-.476a.476.476 0 0 1 0-.951h.476a.476.476 0 0 1 0 .951z"/><path fill="#9B4B5A" d="M17.913 15.423c.159.466.496.892.942 1.07C19.33 12.211 16 12.687 16 12.687c2.379 0 1.913 2.736 1.913 2.736z"/></svg>