<svg xmlns="http://www.w3.org/2000/svg" fill="none" viewBox="0 0 32 32"><mask id="a" style="mask-type:alpha" width="32" height="20" x="0" y="6" maskUnits="userSpaceOnUse"><rect width="32" height="20" y="6" fill="#C4C4C4" rx="2"/></mask><g mask="url(#a)"><path fill="#fff" d="M0 6h39.09v20H0V6z"/><path fill="#C00" fill-rule="evenodd" d="M1.396 6h37.695v1.429H1.396V6zm37.695 4.286H1.396V8.857h37.695v1.429zM1.396 11.714h37.695v1.429H1.396v-1.429zm0 2.857h37.695V16H1.396v-1.429z" clip-rule="evenodd"/><path fill="#006" d="M0 6h19.546v12.143H0V6z"/><path fill="#C00" fill-rule="evenodd" d="M0 17.428h39.09v1.43H0v-1.43zm39.09 4.286H0v-1.428h39.09v1.428zm0 2.857H0v-1.428h39.09v1.428z" clip-rule="evenodd"/><path fill="#FC0" d="M12.216 8.143l.311 2.178 1.204-1.824-.646 2.101 1.86-1.11-1.473 1.607 2.147-.175-2.007.794 2.007.795-2.147-.176 1.472 1.607-1.859-1.11.646 2.101-1.204-1.824-.311 2.179-.311-2.179-1.204 1.825.645-2.102-1.858 1.11 1.471-1.607-2.146.176 2.007-.795-2.007-.794 2.146.175-1.471-1.607 1.858 1.11-.646-2.101 1.205 1.824.31-2.178zm-1.745.09a3.648 3.648 0 0 0-3.54.288c-.52.346-.947.819-1.243 1.377a3.88 3.88 0 0 0 0 3.633 3.778 3.778 0 0 0 1.243 1.377 3.649 3.649 0 0 0 3.54.289 4.108 4.108 0 0 1-4.354.33 4.227 4.227 0 0 1-1.662-1.579 4.36 4.36 0 0 1-.614-2.234c0-.788.212-1.56.614-2.234a4.228 4.228 0 0 1 1.662-1.579 4.108 4.108 0 0 1 4.354.331z"/></g></svg>