<svg xmlns="http://www.w3.org/2000/svg" fill="none" viewBox="0 0 32 32"><path fill="#41479B" d="M29.603 26.483H2.397A2.396 2.396 0 0 1 0 24.086V7.914a2.397 2.397 0 0 1 2.397-2.397h27.206A2.397 2.397 0 0 1 32 7.914v16.172a2.396 2.396 0 0 1-2.397 2.397z"/><path fill="#F5F5F5" d="M.552 16h.958l5.11-3.348V16h2.76v-3.348L14.49 16h.958a.552.552 0 0 0 .552-.552v-.437l-4.385-2.873H16V9.379h-4.385L16 6.507v-.438a.552.552 0 0 0-.552-.552h-.958L9.38 8.866V5.517H6.62v3.349L1.679 5.627A2.402 2.402 0 0 0 .32 6.717l4.064 2.662H0v2.759h4.385L0 15.01v.437c0 .305.247.552.552.552z"/><path fill="#FF4B55" d="M16 9.931H8.828V5.517H7.172v4.414H0v1.655h7.172V16h1.656v-4.414H16V9.931z"/><path fill="#FF4B55" d="M.514 6.431L5.056 9.38h1.013L.913 6.032a2.41 2.41 0 0 0-.399.4zM10.393 9.38l5.523-3.586a.544.544 0 0 0-.468-.277h-.119L9.379 9.38h1.014zM5.592 12.138L.08 15.716A.545.545 0 0 0 .552 16h.104l5.95-3.862H5.592zM15.991 15.492l-5.166-3.354H9.81l5.867 3.808a.546.546 0 0 0 .313-.454zM24.717 23.007a.113.113 0 0 1-.064-.02L24 22.52l-.653.467a.11.11 0 0 1-.17-.123l.243-.766-.646-.476a.11.11 0 0 1 .065-.2l.802-.006.254-.761a.11.11 0 0 1 .21 0l.254.761.802.006a.11.11 0 0 1 .065.2l-.645.476.242.765a.111.111 0 0 1-.106.144z"/><path fill="#F5F5F5" d="M24 20.69l.279.836.881.007-.709.523.266.84-.717-.512-.717.513.266-.84-.71-.524.882-.007.279-.836zm0-.221a.22.22 0 0 0-.21.15l-.228.687-.724.006a.22.22 0 0 0-.13.398l.583.43-.218.69a.22.22 0 0 0 .338.246l.59-.42.588.42a.222.222 0 0 0 .258 0 .22.22 0 0 0 .08-.246l-.218-.69.582-.43a.22.22 0 0 0-.129-.398l-.723-.006-.23-.686a.221.221 0 0 0-.209-.151z"/><path fill="#FF4B55" d="M24.717 14.112a.112.112 0 0 1-.064-.02L24 13.624l-.653.468a.111.111 0 0 1-.13 0 .111.111 0 0 1-.04-.124l.243-.765-.646-.477a.11.11 0 0 1 .065-.199l.802-.006.254-.761a.11.11 0 0 1 .21 0l.254.761.802.006a.111.111 0 0 1 .065.2l-.645.476.242.765a.111.111 0 0 1-.106.144z"/><path fill="#F5F5F5" d="M24 11.795l.279.836.881.006-.709.524.266.84L24 13.49l-.717.512.266-.84-.71-.524.882-.006.279-.836zm0-.221a.22.22 0 0 0-.21.15l-.228.687-.724.006a.22.22 0 0 0-.13.398l.583.43-.218.69a.22.22 0 0 0 .338.246l.59-.42.588.42a.221.221 0 0 0 .339-.246l-.219-.69.582-.43a.22.22 0 0 0-.129-.398l-.723-.006-.23-.686a.221.221 0 0 0-.209-.151z"/><path fill="#FF4B55" d="M28.58 16.87a.112.112 0 0 1-.065-.02l-.653-.467-.653.467a.111.111 0 0 1-.129 0 .111.111 0 0 1-.04-.123l.242-.765-.645-.477a.11.11 0 0 1 .064-.2l.803-.005.253-.762a.11.11 0 0 1 .21 0l.254.762.802.006a.11.11 0 0 1 .105.076.111.111 0 0 1-.04.123l-.645.477.242.765a.111.111 0 0 1-.106.144z"/><path fill="#F5F5F5" d="M27.862 14.553l.279.836.881.007-.709.524.266.84-.717-.513-.717.513.266-.84-.71-.524.882-.007.28-.836zm0-.22a.22.22 0 0 0-.21.15l-.228.687-.724.005a.22.22 0 0 0-.13.399l.583.43-.218.69a.22.22 0 0 0 .338.246l.59-.421.588.42a.22.22 0 0 0 .339-.245l-.218-.69.582-.43a.22.22 0 0 0-.13-.399l-.723-.005-.23-.687a.221.221 0 0 0-.209-.15z"/><path fill="#FF4B55" d="M20.855 17.974a.111.111 0 0 1-.064-.02l-.653-.468-.653.468a.111.111 0 0 1-.129 0 .111.111 0 0 1-.04-.124l.242-.765-.646-.477a.11.11 0 0 1 .065-.199l.803-.006.253-.761a.11.11 0 0 1 .21 0l.254.761.802.006c.048 0 .09.031.105.076a.111.111 0 0 1-.04.123l-.645.477.242.765a.111.111 0 0 1-.106.144z"/><path fill="#F5F5F5" d="M20.138 15.657l.279.836.881.007-.709.523.266.84-.717-.512-.717.512.266-.84-.71-.523.882-.007.279-.836zm0-.221a.22.22 0 0 0-.21.15l-.228.687-.724.006a.22.22 0 0 0-.13.398l.583.43-.218.69a.22.22 0 0 0 .338.246l.59-.42.588.42a.222.222 0 0 0 .258 0 .22.22 0 0 0 .08-.246l-.218-.69.582-.43a.22.22 0 0 0-.129-.398l-.724-.006-.229-.686a.221.221 0 0 0-.209-.151z"/></svg>