<svg xmlns="http://www.w3.org/2000/svg" fill="none" viewBox="0 0 32 32"><path fill="#0038A8" d="M0 8a2 2 0 0 1 2-2h28a2 2 0 0 1 2 2v8H0V8z"/><path fill="#CE1126" d="M0 16h32v8a2 2 0 0 1-2 2H2a2 2 0 0 1-2-2v-8z"/><mask id="a" style="mask-type:alpha" width="32" height="20" x="0" y="6" maskUnits="userSpaceOnUse"><rect width="32" height="20" y="6" fill="#C4C4C4" rx="2"/></mask><g mask="url(#a)"><path fill="#fff" d="M14 16L0 26V6"/><path fill="#FCD116" fill-rule="evenodd" d="M1.282 8.252L.8 7.732l.12.782-.545.411.632.1.145.774.27-.72.635.067-.465-.544.247-.733-.557.383zm10.373 7.487l-.013-.796-.384.634-.61-.23.364.653-.364.653.61-.23.384.634.013-.796.602-.261-.602-.261zM1.152 22.2l.27.72.635-.067-.465.544.247.733-.557-.383-.482.52.12-.782-.545-.411.632-.1.145-.774zM4.77 12.037l.208-.26.207.26-.103 1.967c.035.003.07.007.105.013l.189-1.795.17.212-.256 1.604c.21.052.405.156.577.3l.727-1.36h.24l-.882 1.436c.027.026.054.054.08.083l1.04-1.483h.294v.368l-1.186 1.3c.023.032.046.066.067.1l1.149-1.102v.3l-1.088.909c.115.214.198.458.24.72l1.282-.318.17.212-1.436.236c.005.043.008.086.01.13l1.574-.129.208.26-.208.26-1.574-.13a2.495 2.495 0 0 1-.01.131L8 16.497l-.17.212-1.283-.319a2.284 2.284 0 0 1-.239.721l1.088.909v.3l-1.149-1.103a2.012 2.012 0 0 1-.067.101l1.186 1.3v.368h-.294l-1.04-1.483a1.776 1.776 0 0 1-.08.084l.881 1.436h-.24l-.726-1.36a1.437 1.437 0 0 1-.577.299l.255 1.604-.17.212-.188-1.795c-.035.006-.07.01-.105.013l.103 1.966-.207.26-.208-.26.103-1.966a1.282 1.282 0 0 1-.104-.013l-.19 1.795-.169-.212.256-1.604a1.437 1.437 0 0 1-.577-.3l-.727 1.36h-.24l.882-1.435a1.732 1.732 0 0 1-.081-.084l-1.04 1.483H2.59v-.368l1.186-1.3a1.996 1.996 0 0 1-.066-.1l-1.15 1.102v-.3l1.088-.909a2.283 2.283 0 0 1-.239-.72l-1.283.318-.17-.212 1.436-.236a2.505 2.505 0 0 1-.01-.13l-1.573.129L1.6 16l.208-.26 1.573.13c.002-.045.006-.088.01-.131l-1.436-.236.17-.212 1.283.319c.042-.263.125-.506.24-.721l-1.089-.909v-.3l1.15 1.103c.02-.035.043-.069.066-.101l-1.186-1.3v-.368h.294l1.04 1.483c.026-.03.053-.057.08-.083l-.88-1.437h.239l.727 1.36c.171-.144.367-.247.577-.299l-.256-1.604.17-.212.189 1.795c.034-.006.069-.01.104-.013l-.103-1.967z" clip-rule="evenodd"/></g></svg>