<svg xmlns="http://www.w3.org/2000/svg" fill="none" viewBox="0 0 32 32"><path fill="#F5F5F5" d="M29.603 26.483H2.397A2.397 2.397 0 0 1 0 24.086V7.914a2.397 2.397 0 0 1 2.397-2.397h27.206A2.397 2.397 0 0 1 32 7.914v16.172a2.397 2.397 0 0 1-2.397 2.397z"/><path fill="#FF4B55" d="M29.603 5.517H2.397A2.397 2.397 0 0 0 0 7.914V16h32V7.914a2.396 2.396 0 0 0-2.397-2.397z"/><path fill="#F5F5F5" d="M0 16h32v9.931a.552.552 0 0 1-.552.552H.552A.552.552 0 0 1 0 25.93V16zM4.535 10.766a3.648 3.648 0 0 1 3.07-3.596.084.084 0 0 0 .006-.167 3.776 3.776 0 0 0-1.363-.062c-1.874.255-3.324 1.878-3.35 3.77a3.863 3.863 0 0 0 3.861 3.92c.293 0 .577-.035.85-.098.094-.021.09-.151-.005-.166a3.646 3.646 0 0 1-3.069-3.6z"/><path fill="#F5F5F5" d="M7.634 11.737l-.164.49-.516.004a.07.07 0 0 0-.04.125l.415.307-.156.492a.07.07 0 0 0 .107.078l.42-.3.42.3a.07.07 0 0 0 .106-.078l-.155-.492.415-.307a.07.07 0 0 0-.04-.125l-.517-.004-.163-.49a.07.07 0 0 0-.132 0zM10.185 11.737l-.163.49-.516.004a.07.07 0 0 0-.04.125l.414.307-.155.492a.07.07 0 0 0 .106.078l.42-.3.42.3a.07.07 0 0 0 .107-.078l-.156-.492.416-.307a.07.07 0 0 0-.041-.125l-.516-.004-.164-.49a.07.07 0 0 0-.132 0zM8.921 7.8l-.163.49-.516.003a.07.07 0 0 0-.041.126l.415.306-.155.492a.07.07 0 0 0 .106.078l.42-.3.42.3a.07.07 0 0 0 .107-.078l-.156-.492.415-.306a.07.07 0 0 0-.04-.126l-.516-.004-.164-.49a.07.07 0 0 0-.132 0zM6.887 9.308l-.164.49-.516.004a.07.07 0 0 0-.04.125l.415.307-.156.492a.07.07 0 0 0 .107.078l.42-.3.42.3a.07.07 0 0 0 .106-.078l-.155-.492.415-.307a.07.07 0 0 0-.04-.125l-.517-.004-.163-.49a.07.07 0 0 0-.132 0zM10.938 9.308l-.163.49-.516.004a.07.07 0 0 0-.04.125l.414.307-.155.492a.07.07 0 0 0 .106.078l.42-.3.42.3a.07.07 0 0 0 .107-.078l-.156-.492.416-.307a.07.07 0 0 0-.041-.125l-.516-.004-.164-.49a.07.07 0 0 0-.132 0z"/></svg>