<svg width="60" height="56" viewBox="0 0 60 56" fill="none" xmlns="http://www.w3.org/2000/svg">
<path d="M59.3333 28L52.9333 20.5333L53.7333 10.6667L44.1333 8.53333L39.0666 0L30 4L20.9333 0L15.8666 8.53333L6.26663 10.6667L7.06663 20.5333L0.666626 28L7.06663 35.4667L6.26663 45.3333L15.8666 47.4667L20.9333 56L30 52L39.0666 56L44.1333 47.4667L53.7333 45.3333L52.9333 35.4667L59.3333 28ZM47.8666 41.0667L40.6666 42.6667L36.9333 49.0667L30 46.1333L23.0666 49.0667L19.3333 42.6667L12.1333 41.0667L12.6666 33.6L7.86663 28L12.6666 22.4L12.1333 14.9333L19.3333 13.3333L23.0666 6.93333L30 9.86667L36.9333 6.93333L40.6666 13.3333L47.8666 14.9333L47.3333 22.4L52.1333 28L47.3333 33.6L47.8666 41.0667ZM42.2666 16.2667L46 20L24.6666 41.3333L14 30.6667L17.7333 26.9333L24.6666 33.8667L42.2666 16.2667Z" fill="#27AE60"/>
</svg>
