<svg xmlns="http://www.w3.org/2000/svg" fill="none" viewBox="0 0 32 32"><path fill="#41479B" d="M29.603 5.517H2.397A2.397 2.397 0 0 0 0 7.914v16.172a2.397 2.397 0 0 0 2.397 2.397h27.206A2.397 2.397 0 0 0 32 24.086V7.914a2.396 2.396 0 0 0-2.397-2.397z"/><path fill="#F5F5F5" d="M31.967 7.518a2.397 2.397 0 0 0-2.364-2h-.623l-10.221 6.696V5.517H13.24v6.697L3.021 5.517h-.624a2.397 2.397 0 0 0-2.364 2l8.736 5.724H0v5.518h8.77L.032 24.482a2.397 2.397 0 0 0 2.364 2h.623l10.221-6.696v6.697h5.518v-6.697l10.22 6.697h.624a2.397 2.397 0 0 0 2.364-2l-8.736-5.724H32V13.24h-8.77l8.737-5.723z"/><path fill="#FF4B55" d="M17.655 5.517h-3.31v8.828H0v3.31h14.345v8.828h3.31v-8.828H32v-3.31H17.655V5.517z"/><path fill="#FF4B55" d="M1.55 26.328l11.66-7.57h-2.026L.576 25.645c.26.303.594.54.973.684zM21.65 18.759h-2.027l11.294 7.331c.316-.207.58-.488.768-.817L21.65 18.759zM.253 6.842l9.858 6.4h2.027L.968 5.99c-.3.223-.546.515-.715.852zM20.785 13.241l10.628-6.898a2.4 2.4 0 0 0-.982-.679L18.76 13.241h2.026z"/></svg>